<mxfile host="Electron" modified="2024-04-16T13:23:04.054Z" agent="Mozilla/5.0 (Windows NT 10.0; Win64; x64) AppleWebKit/537.36 (KHTML, like Gecko) draw.io/24.2.5 Chrome/120.0.6099.109 Electron/28.1.0 Safari/537.36" etag="vgXW3JN1jQDAMoRU6eLA" version="24.2.5" type="device">
  <diagram name="Sayfa -1" id="JoqyDuCEZjDNM1l6u3Hz">
    <mxGraphModel dx="1615" dy="955" grid="1" gridSize="10" guides="1" tooltips="1" connect="1" arrows="1" fold="1" page="1" pageScale="1" pageWidth="1654" pageHeight="2336" math="0" shadow="0">
      <root>
        <mxCell id="0" />
        <mxCell id="1" parent="0" />
        <mxCell id="WevAeu7VDjLW6NOyIZ21-1" style="edgeStyle=orthogonalEdgeStyle;rounded=0;orthogonalLoop=1;jettySize=auto;html=1;exitX=0.5;exitY=1;exitDx=0;exitDy=0;" parent="1" edge="1">
          <mxGeometry relative="1" as="geometry">
            <mxPoint x="504" y="476" as="sourcePoint" />
            <mxPoint x="504" y="476" as="targetPoint" />
          </mxGeometry>
        </mxCell>
        <mxCell id="yLUDJvTatkyBeT4OISrp-1" value="Users" style="shape=table;startSize=30;container=1;collapsible=1;childLayout=tableLayout;fixedRows=1;rowLines=0;fontStyle=1;align=center;resizeLast=1;html=1;spacing=1;verticalAlign=middle;" parent="1" vertex="1">
          <mxGeometry x="334" y="360" width="190" height="405" as="geometry" />
        </mxCell>
        <mxCell id="yLUDJvTatkyBeT4OISrp-2" value="" style="shape=tableRow;horizontal=0;startSize=0;swimlaneHead=0;swimlaneBody=0;fillColor=none;collapsible=0;dropTarget=0;points=[[0,0.5],[1,0.5]];portConstraint=eastwest;top=0;left=0;right=0;bottom=1;" parent="yLUDJvTatkyBeT4OISrp-1" vertex="1">
          <mxGeometry y="30" width="190" height="25" as="geometry" />
        </mxCell>
        <mxCell id="yLUDJvTatkyBeT4OISrp-3" value="PK" style="shape=partialRectangle;connectable=0;fillColor=none;top=0;left=0;bottom=0;right=0;fontStyle=1;overflow=hidden;whiteSpace=wrap;html=1;" parent="yLUDJvTatkyBeT4OISrp-2" vertex="1">
          <mxGeometry width="30" height="25" as="geometry">
            <mxRectangle width="30" height="25" as="alternateBounds" />
          </mxGeometry>
        </mxCell>
        <mxCell id="yLUDJvTatkyBeT4OISrp-4" value="userId" style="shape=partialRectangle;connectable=0;fillColor=none;top=0;left=0;bottom=0;right=0;align=left;spacingLeft=6;fontStyle=5;overflow=hidden;whiteSpace=wrap;html=1;" parent="yLUDJvTatkyBeT4OISrp-2" vertex="1">
          <mxGeometry x="30" width="160" height="25" as="geometry">
            <mxRectangle width="160" height="25" as="alternateBounds" />
          </mxGeometry>
        </mxCell>
        <mxCell id="yLUDJvTatkyBeT4OISrp-5" value="" style="shape=tableRow;horizontal=0;startSize=0;swimlaneHead=0;swimlaneBody=0;fillColor=none;collapsible=0;dropTarget=0;points=[[0,0.5],[1,0.5]];portConstraint=eastwest;top=0;left=0;right=0;bottom=0;" parent="yLUDJvTatkyBeT4OISrp-1" vertex="1">
          <mxGeometry y="55" width="190" height="25" as="geometry" />
        </mxCell>
        <mxCell id="yLUDJvTatkyBeT4OISrp-6" value="" style="shape=partialRectangle;connectable=0;fillColor=none;top=0;left=0;bottom=0;right=0;editable=1;overflow=hidden;whiteSpace=wrap;html=1;" parent="yLUDJvTatkyBeT4OISrp-5" vertex="1">
          <mxGeometry width="30" height="25" as="geometry">
            <mxRectangle width="30" height="25" as="alternateBounds" />
          </mxGeometry>
        </mxCell>
        <mxCell id="yLUDJvTatkyBeT4OISrp-7" value="email&lt;span style=&quot;white-space: pre;&quot;&gt;&#x9;&lt;/span&gt;&lt;span style=&quot;white-space: pre;&quot;&gt;&#x9;&lt;/span&gt;" style="shape=partialRectangle;connectable=0;fillColor=none;top=0;left=0;bottom=0;right=0;align=left;spacingLeft=6;overflow=hidden;whiteSpace=wrap;html=1;" parent="yLUDJvTatkyBeT4OISrp-5" vertex="1">
          <mxGeometry x="30" width="160" height="25" as="geometry">
            <mxRectangle width="160" height="25" as="alternateBounds" />
          </mxGeometry>
        </mxCell>
        <mxCell id="yLUDJvTatkyBeT4OISrp-8" value="" style="shape=tableRow;horizontal=0;startSize=0;swimlaneHead=0;swimlaneBody=0;fillColor=none;collapsible=0;dropTarget=0;points=[[0,0.5],[1,0.5]];portConstraint=eastwest;top=0;left=0;right=0;bottom=0;" parent="yLUDJvTatkyBeT4OISrp-1" vertex="1">
          <mxGeometry y="80" width="190" height="25" as="geometry" />
        </mxCell>
        <mxCell id="yLUDJvTatkyBeT4OISrp-9" value="" style="shape=partialRectangle;connectable=0;fillColor=none;top=0;left=0;bottom=0;right=0;editable=1;overflow=hidden;whiteSpace=wrap;html=1;" parent="yLUDJvTatkyBeT4OISrp-8" vertex="1">
          <mxGeometry width="30" height="25" as="geometry">
            <mxRectangle width="30" height="25" as="alternateBounds" />
          </mxGeometry>
        </mxCell>
        <mxCell id="yLUDJvTatkyBeT4OISrp-10" value="password" style="shape=partialRectangle;connectable=0;fillColor=none;top=0;left=0;bottom=0;right=0;align=left;spacingLeft=6;overflow=hidden;whiteSpace=wrap;html=1;" parent="yLUDJvTatkyBeT4OISrp-8" vertex="1">
          <mxGeometry x="30" width="160" height="25" as="geometry">
            <mxRectangle width="160" height="25" as="alternateBounds" />
          </mxGeometry>
        </mxCell>
        <mxCell id="yLUDJvTatkyBeT4OISrp-52" value="" style="shape=tableRow;horizontal=0;startSize=0;swimlaneHead=0;swimlaneBody=0;fillColor=none;collapsible=0;dropTarget=0;points=[[0,0.5],[1,0.5]];portConstraint=eastwest;top=0;left=0;right=0;bottom=0;" parent="yLUDJvTatkyBeT4OISrp-1" vertex="1">
          <mxGeometry y="105" width="190" height="25" as="geometry" />
        </mxCell>
        <mxCell id="yLUDJvTatkyBeT4OISrp-53" value="" style="shape=partialRectangle;connectable=0;fillColor=none;top=0;left=0;bottom=0;right=0;editable=1;overflow=hidden;whiteSpace=wrap;html=1;" parent="yLUDJvTatkyBeT4OISrp-52" vertex="1">
          <mxGeometry width="30" height="25" as="geometry">
            <mxRectangle width="30" height="25" as="alternateBounds" />
          </mxGeometry>
        </mxCell>
        <mxCell id="yLUDJvTatkyBeT4OISrp-54" value="konum" style="shape=partialRectangle;connectable=0;fillColor=none;top=0;left=0;bottom=0;right=0;align=left;spacingLeft=6;overflow=hidden;whiteSpace=wrap;html=1;" parent="yLUDJvTatkyBeT4OISrp-52" vertex="1">
          <mxGeometry x="30" width="160" height="25" as="geometry">
            <mxRectangle width="160" height="25" as="alternateBounds" />
          </mxGeometry>
        </mxCell>
        <mxCell id="yLUDJvTatkyBeT4OISrp-11" value="" style="shape=tableRow;horizontal=0;startSize=0;swimlaneHead=0;swimlaneBody=0;fillColor=none;collapsible=0;dropTarget=0;points=[[0,0.5],[1,0.5]];portConstraint=eastwest;top=0;left=0;right=0;bottom=0;" parent="yLUDJvTatkyBeT4OISrp-1" vertex="1">
          <mxGeometry y="130" width="190" height="25" as="geometry" />
        </mxCell>
        <mxCell id="yLUDJvTatkyBeT4OISrp-12" value="" style="shape=partialRectangle;connectable=0;fillColor=none;top=0;left=0;bottom=0;right=0;editable=1;overflow=hidden;whiteSpace=wrap;html=1;" parent="yLUDJvTatkyBeT4OISrp-11" vertex="1">
          <mxGeometry width="30" height="25" as="geometry">
            <mxRectangle width="30" height="25" as="alternateBounds" />
          </mxGeometry>
        </mxCell>
        <mxCell id="yLUDJvTatkyBeT4OISrp-13" value="displayName" style="shape=partialRectangle;connectable=0;fillColor=none;top=0;left=0;bottom=0;right=0;align=left;spacingLeft=6;overflow=hidden;whiteSpace=wrap;html=1;" parent="yLUDJvTatkyBeT4OISrp-11" vertex="1">
          <mxGeometry x="30" width="160" height="25" as="geometry">
            <mxRectangle width="160" height="25" as="alternateBounds" />
          </mxGeometry>
        </mxCell>
        <mxCell id="yLUDJvTatkyBeT4OISrp-15" value="" style="shape=tableRow;horizontal=0;startSize=0;swimlaneHead=0;swimlaneBody=0;fillColor=none;collapsible=0;dropTarget=0;points=[[0,0.5],[1,0.5]];portConstraint=eastwest;top=0;left=0;right=0;bottom=0;" parent="yLUDJvTatkyBeT4OISrp-1" vertex="1">
          <mxGeometry y="155" width="190" height="25" as="geometry" />
        </mxCell>
        <mxCell id="yLUDJvTatkyBeT4OISrp-16" value="" style="shape=partialRectangle;connectable=0;fillColor=none;top=0;left=0;bottom=0;right=0;editable=1;overflow=hidden;whiteSpace=wrap;html=1;" parent="yLUDJvTatkyBeT4OISrp-15" vertex="1">
          <mxGeometry width="30" height="25" as="geometry">
            <mxRectangle width="30" height="25" as="alternateBounds" />
          </mxGeometry>
        </mxCell>
        <mxCell id="yLUDJvTatkyBeT4OISrp-17" value="pictureUrl&lt;span style=&quot;white-space: pre;&quot;&gt;&#x9;&lt;/span&gt;" style="shape=partialRectangle;connectable=0;fillColor=none;top=0;left=0;bottom=0;right=0;align=left;spacingLeft=6;overflow=hidden;whiteSpace=wrap;html=1;" parent="yLUDJvTatkyBeT4OISrp-15" vertex="1">
          <mxGeometry x="30" width="160" height="25" as="geometry">
            <mxRectangle width="160" height="25" as="alternateBounds" />
          </mxGeometry>
        </mxCell>
        <mxCell id="yLUDJvTatkyBeT4OISrp-37" value="" style="shape=tableRow;horizontal=0;startSize=0;swimlaneHead=0;swimlaneBody=0;fillColor=none;collapsible=0;dropTarget=0;points=[[0,0.5],[1,0.5]];portConstraint=eastwest;top=0;left=0;right=0;bottom=0;" parent="yLUDJvTatkyBeT4OISrp-1" vertex="1">
          <mxGeometry y="180" width="190" height="25" as="geometry" />
        </mxCell>
        <mxCell id="yLUDJvTatkyBeT4OISrp-38" value="" style="shape=partialRectangle;connectable=0;fillColor=none;top=0;left=0;bottom=0;right=0;editable=1;overflow=hidden;whiteSpace=wrap;html=1;" parent="yLUDJvTatkyBeT4OISrp-37" vertex="1">
          <mxGeometry width="30" height="25" as="geometry">
            <mxRectangle width="30" height="25" as="alternateBounds" />
          </mxGeometry>
        </mxCell>
        <mxCell id="yLUDJvTatkyBeT4OISrp-39" value="about" style="shape=partialRectangle;connectable=0;fillColor=none;top=0;left=0;bottom=0;right=0;align=left;spacingLeft=6;overflow=hidden;whiteSpace=wrap;html=1;" parent="yLUDJvTatkyBeT4OISrp-37" vertex="1">
          <mxGeometry x="30" width="160" height="25" as="geometry">
            <mxRectangle width="160" height="25" as="alternateBounds" />
          </mxGeometry>
        </mxCell>
        <mxCell id="yLUDJvTatkyBeT4OISrp-43" value="" style="shape=tableRow;horizontal=0;startSize=0;swimlaneHead=0;swimlaneBody=0;fillColor=none;collapsible=0;dropTarget=0;points=[[0,0.5],[1,0.5]];portConstraint=eastwest;top=0;left=0;right=0;bottom=0;" parent="yLUDJvTatkyBeT4OISrp-1" vertex="1">
          <mxGeometry y="205" width="190" height="25" as="geometry" />
        </mxCell>
        <mxCell id="yLUDJvTatkyBeT4OISrp-44" value="" style="shape=partialRectangle;connectable=0;fillColor=none;top=0;left=0;bottom=0;right=0;editable=1;overflow=hidden;whiteSpace=wrap;html=1;" parent="yLUDJvTatkyBeT4OISrp-43" vertex="1">
          <mxGeometry width="30" height="25" as="geometry">
            <mxRectangle width="30" height="25" as="alternateBounds" />
          </mxGeometry>
        </mxCell>
        <mxCell id="yLUDJvTatkyBeT4OISrp-45" value="website" style="shape=partialRectangle;connectable=0;fillColor=none;top=0;left=0;bottom=0;right=0;align=left;spacingLeft=6;overflow=hidden;whiteSpace=wrap;html=1;" parent="yLUDJvTatkyBeT4OISrp-43" vertex="1">
          <mxGeometry x="30" width="160" height="25" as="geometry">
            <mxRectangle width="160" height="25" as="alternateBounds" />
          </mxGeometry>
        </mxCell>
        <mxCell id="Xz8H3Bzz6eP4JOFIejTX-153" value="" style="shape=tableRow;horizontal=0;startSize=0;swimlaneHead=0;swimlaneBody=0;fillColor=none;collapsible=0;dropTarget=0;points=[[0,0.5],[1,0.5]];portConstraint=eastwest;top=0;left=0;right=0;bottom=0;" vertex="1" parent="yLUDJvTatkyBeT4OISrp-1">
          <mxGeometry y="230" width="190" height="25" as="geometry" />
        </mxCell>
        <mxCell id="Xz8H3Bzz6eP4JOFIejTX-154" value="" style="shape=partialRectangle;connectable=0;fillColor=none;top=0;left=0;bottom=0;right=0;editable=1;overflow=hidden;whiteSpace=wrap;html=1;" vertex="1" parent="Xz8H3Bzz6eP4JOFIejTX-153">
          <mxGeometry width="30" height="25" as="geometry">
            <mxRectangle width="30" height="25" as="alternateBounds" />
          </mxGeometry>
        </mxCell>
        <mxCell id="Xz8H3Bzz6eP4JOFIejTX-155" value="badgeCount" style="shape=partialRectangle;connectable=0;fillColor=none;top=0;left=0;bottom=0;right=0;align=left;spacingLeft=6;overflow=hidden;whiteSpace=wrap;html=1;" vertex="1" parent="Xz8H3Bzz6eP4JOFIejTX-153">
          <mxGeometry x="30" width="160" height="25" as="geometry">
            <mxRectangle width="160" height="25" as="alternateBounds" />
          </mxGeometry>
        </mxCell>
        <mxCell id="yLUDJvTatkyBeT4OISrp-46" value="" style="shape=tableRow;horizontal=0;startSize=0;swimlaneHead=0;swimlaneBody=0;fillColor=none;collapsible=0;dropTarget=0;points=[[0,0.5],[1,0.5]];portConstraint=eastwest;top=0;left=0;right=0;bottom=0;" parent="yLUDJvTatkyBeT4OISrp-1" vertex="1">
          <mxGeometry y="255" width="190" height="25" as="geometry" />
        </mxCell>
        <mxCell id="yLUDJvTatkyBeT4OISrp-47" value="" style="shape=partialRectangle;connectable=0;fillColor=none;top=0;left=0;bottom=0;right=0;editable=1;overflow=hidden;whiteSpace=wrap;html=1;" parent="yLUDJvTatkyBeT4OISrp-46" vertex="1">
          <mxGeometry width="30" height="25" as="geometry">
            <mxRectangle width="30" height="25" as="alternateBounds" />
          </mxGeometry>
        </mxCell>
        <mxCell id="yLUDJvTatkyBeT4OISrp-48" value="birthDay" style="shape=partialRectangle;connectable=0;fillColor=none;top=0;left=0;bottom=0;right=0;align=left;spacingLeft=6;overflow=hidden;whiteSpace=wrap;html=1;" parent="yLUDJvTatkyBeT4OISrp-46" vertex="1">
          <mxGeometry x="30" width="160" height="25" as="geometry">
            <mxRectangle width="160" height="25" as="alternateBounds" />
          </mxGeometry>
        </mxCell>
        <mxCell id="yLUDJvTatkyBeT4OISrp-49" value="" style="shape=tableRow;horizontal=0;startSize=0;swimlaneHead=0;swimlaneBody=0;fillColor=none;collapsible=0;dropTarget=0;points=[[0,0.5],[1,0.5]];portConstraint=eastwest;top=0;left=0;right=0;bottom=0;" parent="yLUDJvTatkyBeT4OISrp-1" vertex="1">
          <mxGeometry y="280" width="190" height="25" as="geometry" />
        </mxCell>
        <mxCell id="yLUDJvTatkyBeT4OISrp-50" value="" style="shape=partialRectangle;connectable=0;fillColor=none;top=0;left=0;bottom=0;right=0;editable=1;overflow=hidden;whiteSpace=wrap;html=1;" parent="yLUDJvTatkyBeT4OISrp-49" vertex="1">
          <mxGeometry width="30" height="25" as="geometry">
            <mxRectangle width="30" height="25" as="alternateBounds" />
          </mxGeometry>
        </mxCell>
        <mxCell id="yLUDJvTatkyBeT4OISrp-51" value="githubUserName&lt;span style=&quot;white-space: pre;&quot;&gt;&#x9;&lt;/span&gt;" style="shape=partialRectangle;connectable=0;fillColor=none;top=0;left=0;bottom=0;right=0;align=left;spacingLeft=6;overflow=hidden;whiteSpace=wrap;html=1;" parent="yLUDJvTatkyBeT4OISrp-49" vertex="1">
          <mxGeometry x="30" width="160" height="25" as="geometry">
            <mxRectangle width="160" height="25" as="alternateBounds" />
          </mxGeometry>
        </mxCell>
        <mxCell id="yLUDJvTatkyBeT4OISrp-55" value="" style="shape=tableRow;horizontal=0;startSize=0;swimlaneHead=0;swimlaneBody=0;fillColor=none;collapsible=0;dropTarget=0;points=[[0,0.5],[1,0.5]];portConstraint=eastwest;top=0;left=0;right=0;bottom=0;" parent="yLUDJvTatkyBeT4OISrp-1" vertex="1">
          <mxGeometry y="305" width="190" height="25" as="geometry" />
        </mxCell>
        <mxCell id="yLUDJvTatkyBeT4OISrp-56" value="" style="shape=partialRectangle;connectable=0;fillColor=none;top=0;left=0;bottom=0;right=0;editable=1;overflow=hidden;whiteSpace=wrap;html=1;" parent="yLUDJvTatkyBeT4OISrp-55" vertex="1">
          <mxGeometry width="30" height="25" as="geometry">
            <mxRectangle width="30" height="25" as="alternateBounds" />
          </mxGeometry>
        </mxCell>
        <mxCell id="yLUDJvTatkyBeT4OISrp-57" value="twitterUserName" style="shape=partialRectangle;connectable=0;fillColor=none;top=0;left=0;bottom=0;right=0;align=left;spacingLeft=6;overflow=hidden;whiteSpace=wrap;html=1;" parent="yLUDJvTatkyBeT4OISrp-55" vertex="1">
          <mxGeometry x="30" width="160" height="25" as="geometry">
            <mxRectangle width="160" height="25" as="alternateBounds" />
          </mxGeometry>
        </mxCell>
        <mxCell id="yLUDJvTatkyBeT4OISrp-58" value="" style="shape=tableRow;horizontal=0;startSize=0;swimlaneHead=0;swimlaneBody=0;fillColor=none;collapsible=0;dropTarget=0;points=[[0,0.5],[1,0.5]];portConstraint=eastwest;top=0;left=0;right=0;bottom=0;" parent="yLUDJvTatkyBeT4OISrp-1" vertex="1">
          <mxGeometry y="330" width="190" height="25" as="geometry" />
        </mxCell>
        <mxCell id="yLUDJvTatkyBeT4OISrp-59" value="" style="shape=partialRectangle;connectable=0;fillColor=none;top=0;left=0;bottom=0;right=0;editable=1;overflow=hidden;whiteSpace=wrap;html=1;" parent="yLUDJvTatkyBeT4OISrp-58" vertex="1">
          <mxGeometry width="30" height="25" as="geometry">
            <mxRectangle width="30" height="25" as="alternateBounds" />
          </mxGeometry>
        </mxCell>
        <mxCell id="yLUDJvTatkyBeT4OISrp-60" value="creationTime" style="shape=partialRectangle;connectable=0;fillColor=none;top=0;left=0;bottom=0;right=0;align=left;spacingLeft=6;overflow=hidden;whiteSpace=wrap;html=1;" parent="yLUDJvTatkyBeT4OISrp-58" vertex="1">
          <mxGeometry x="30" width="160" height="25" as="geometry">
            <mxRectangle width="160" height="25" as="alternateBounds" />
          </mxGeometry>
        </mxCell>
        <mxCell id="qOU1-5jlqHvTD_oqu2oP-50" value="" style="shape=tableRow;horizontal=0;startSize=0;swimlaneHead=0;swimlaneBody=0;fillColor=none;collapsible=0;dropTarget=0;points=[[0,0.5],[1,0.5]];portConstraint=eastwest;top=0;left=0;right=0;bottom=0;" parent="yLUDJvTatkyBeT4OISrp-1" vertex="1">
          <mxGeometry y="355" width="190" height="25" as="geometry" />
        </mxCell>
        <mxCell id="qOU1-5jlqHvTD_oqu2oP-51" value="" style="shape=partialRectangle;connectable=0;fillColor=none;top=0;left=0;bottom=0;right=0;editable=1;overflow=hidden;whiteSpace=wrap;html=1;" parent="qOU1-5jlqHvTD_oqu2oP-50" vertex="1">
          <mxGeometry width="30" height="25" as="geometry">
            <mxRectangle width="30" height="25" as="alternateBounds" />
          </mxGeometry>
        </mxCell>
        <mxCell id="qOU1-5jlqHvTD_oqu2oP-52" value="lastModificationTime" style="shape=partialRectangle;connectable=0;fillColor=none;top=0;left=0;bottom=0;right=0;align=left;spacingLeft=6;overflow=hidden;whiteSpace=wrap;html=1;" parent="qOU1-5jlqHvTD_oqu2oP-50" vertex="1">
          <mxGeometry x="30" width="160" height="25" as="geometry">
            <mxRectangle width="160" height="25" as="alternateBounds" />
          </mxGeometry>
        </mxCell>
        <mxCell id="Xz8H3Bzz6eP4JOFIejTX-187" value="" style="shape=tableRow;horizontal=0;startSize=0;swimlaneHead=0;swimlaneBody=0;fillColor=none;collapsible=0;dropTarget=0;points=[[0,0.5],[1,0.5]];portConstraint=eastwest;top=0;left=0;right=0;bottom=0;" vertex="1" parent="yLUDJvTatkyBeT4OISrp-1">
          <mxGeometry y="380" width="190" height="25" as="geometry" />
        </mxCell>
        <mxCell id="Xz8H3Bzz6eP4JOFIejTX-188" value="" style="shape=partialRectangle;connectable=0;fillColor=none;top=0;left=0;bottom=0;right=0;editable=1;overflow=hidden;whiteSpace=wrap;html=1;" vertex="1" parent="Xz8H3Bzz6eP4JOFIejTX-187">
          <mxGeometry width="30" height="25" as="geometry">
            <mxRectangle width="30" height="25" as="alternateBounds" />
          </mxGeometry>
        </mxCell>
        <mxCell id="Xz8H3Bzz6eP4JOFIejTX-189" value="userType" style="shape=partialRectangle;connectable=0;fillColor=none;top=0;left=0;bottom=0;right=0;align=left;spacingLeft=6;overflow=hidden;whiteSpace=wrap;html=1;" vertex="1" parent="Xz8H3Bzz6eP4JOFIejTX-187">
          <mxGeometry x="30" width="160" height="25" as="geometry">
            <mxRectangle width="160" height="25" as="alternateBounds" />
          </mxGeometry>
        </mxCell>
        <mxCell id="qOU1-5jlqHvTD_oqu2oP-1" value="Questions" style="shape=table;startSize=30;container=1;collapsible=1;childLayout=tableLayout;fixedRows=1;rowLines=0;fontStyle=1;align=center;resizeLast=1;html=1;spacing=1;verticalAlign=middle;" parent="1" vertex="1">
          <mxGeometry x="634" y="222" width="180" height="307" as="geometry" />
        </mxCell>
        <mxCell id="qOU1-5jlqHvTD_oqu2oP-2" value="" style="shape=tableRow;horizontal=0;startSize=0;swimlaneHead=0;swimlaneBody=0;fillColor=none;collapsible=0;dropTarget=0;points=[[0,0.5],[1,0.5]];portConstraint=eastwest;top=0;left=0;right=0;bottom=1;" parent="qOU1-5jlqHvTD_oqu2oP-1" vertex="1">
          <mxGeometry y="30" width="180" height="25" as="geometry" />
        </mxCell>
        <mxCell id="qOU1-5jlqHvTD_oqu2oP-3" value="PK" style="shape=partialRectangle;connectable=0;fillColor=none;top=0;left=0;bottom=0;right=0;fontStyle=1;overflow=hidden;whiteSpace=wrap;html=1;" parent="qOU1-5jlqHvTD_oqu2oP-2" vertex="1">
          <mxGeometry width="30" height="25" as="geometry">
            <mxRectangle width="30" height="25" as="alternateBounds" />
          </mxGeometry>
        </mxCell>
        <mxCell id="qOU1-5jlqHvTD_oqu2oP-4" value="questionId" style="shape=partialRectangle;connectable=0;fillColor=none;top=0;left=0;bottom=0;right=0;align=left;spacingLeft=6;fontStyle=5;overflow=hidden;whiteSpace=wrap;html=1;" parent="qOU1-5jlqHvTD_oqu2oP-2" vertex="1">
          <mxGeometry x="30" width="150" height="25" as="geometry">
            <mxRectangle width="150" height="25" as="alternateBounds" />
          </mxGeometry>
        </mxCell>
        <mxCell id="qOU1-5jlqHvTD_oqu2oP-145" value="" style="shape=tableRow;horizontal=0;startSize=0;swimlaneHead=0;swimlaneBody=0;fillColor=none;collapsible=0;dropTarget=0;points=[[0,0.5],[1,0.5]];portConstraint=eastwest;top=0;left=0;right=0;bottom=0;" parent="qOU1-5jlqHvTD_oqu2oP-1" vertex="1">
          <mxGeometry y="55" width="180" height="25" as="geometry" />
        </mxCell>
        <mxCell id="qOU1-5jlqHvTD_oqu2oP-146" value="FK" style="shape=partialRectangle;connectable=0;fillColor=none;top=0;left=0;bottom=0;right=0;editable=1;overflow=hidden;whiteSpace=wrap;html=1;" parent="qOU1-5jlqHvTD_oqu2oP-145" vertex="1">
          <mxGeometry width="30" height="25" as="geometry">
            <mxRectangle width="30" height="25" as="alternateBounds" />
          </mxGeometry>
        </mxCell>
        <mxCell id="qOU1-5jlqHvTD_oqu2oP-147" value="userId" style="shape=partialRectangle;connectable=0;fillColor=none;top=0;left=0;bottom=0;right=0;align=left;spacingLeft=6;overflow=hidden;whiteSpace=wrap;html=1;" parent="qOU1-5jlqHvTD_oqu2oP-145" vertex="1">
          <mxGeometry x="30" width="150" height="25" as="geometry">
            <mxRectangle width="150" height="25" as="alternateBounds" />
          </mxGeometry>
        </mxCell>
        <mxCell id="qOU1-5jlqHvTD_oqu2oP-5" value="" style="shape=tableRow;horizontal=0;startSize=0;swimlaneHead=0;swimlaneBody=0;fillColor=none;collapsible=0;dropTarget=0;points=[[0,0.5],[1,0.5]];portConstraint=eastwest;top=0;left=0;right=0;bottom=0;" parent="qOU1-5jlqHvTD_oqu2oP-1" vertex="1">
          <mxGeometry y="80" width="180" height="25" as="geometry" />
        </mxCell>
        <mxCell id="qOU1-5jlqHvTD_oqu2oP-6" value="" style="shape=partialRectangle;connectable=0;fillColor=none;top=0;left=0;bottom=0;right=0;editable=1;overflow=hidden;whiteSpace=wrap;html=1;" parent="qOU1-5jlqHvTD_oqu2oP-5" vertex="1">
          <mxGeometry width="30" height="25" as="geometry">
            <mxRectangle width="30" height="25" as="alternateBounds" />
          </mxGeometry>
        </mxCell>
        <mxCell id="qOU1-5jlqHvTD_oqu2oP-7" value="subject&lt;span style=&quot;white-space: pre;&quot;&gt;&#x9;&lt;/span&gt;" style="shape=partialRectangle;connectable=0;fillColor=none;top=0;left=0;bottom=0;right=0;align=left;spacingLeft=6;overflow=hidden;whiteSpace=wrap;html=1;" parent="qOU1-5jlqHvTD_oqu2oP-5" vertex="1">
          <mxGeometry x="30" width="150" height="25" as="geometry">
            <mxRectangle width="150" height="25" as="alternateBounds" />
          </mxGeometry>
        </mxCell>
        <mxCell id="qOU1-5jlqHvTD_oqu2oP-8" value="" style="shape=tableRow;horizontal=0;startSize=0;swimlaneHead=0;swimlaneBody=0;fillColor=none;collapsible=0;dropTarget=0;points=[[0,0.5],[1,0.5]];portConstraint=eastwest;top=0;left=0;right=0;bottom=0;" parent="qOU1-5jlqHvTD_oqu2oP-1" vertex="1">
          <mxGeometry y="105" width="180" height="25" as="geometry" />
        </mxCell>
        <mxCell id="qOU1-5jlqHvTD_oqu2oP-9" value="" style="shape=partialRectangle;connectable=0;fillColor=none;top=0;left=0;bottom=0;right=0;editable=1;overflow=hidden;whiteSpace=wrap;html=1;" parent="qOU1-5jlqHvTD_oqu2oP-8" vertex="1">
          <mxGeometry width="30" height="25" as="geometry">
            <mxRectangle width="30" height="25" as="alternateBounds" />
          </mxGeometry>
        </mxCell>
        <mxCell id="qOU1-5jlqHvTD_oqu2oP-10" value="body" style="shape=partialRectangle;connectable=0;fillColor=none;top=0;left=0;bottom=0;right=0;align=left;spacingLeft=6;overflow=hidden;whiteSpace=wrap;html=1;" parent="qOU1-5jlqHvTD_oqu2oP-8" vertex="1">
          <mxGeometry x="30" width="150" height="25" as="geometry">
            <mxRectangle width="150" height="25" as="alternateBounds" />
          </mxGeometry>
        </mxCell>
        <mxCell id="qOU1-5jlqHvTD_oqu2oP-69" value="" style="shape=tableRow;horizontal=0;startSize=0;swimlaneHead=0;swimlaneBody=0;fillColor=none;collapsible=0;dropTarget=0;points=[[0,0.5],[1,0.5]];portConstraint=eastwest;top=0;left=0;right=0;bottom=0;" parent="qOU1-5jlqHvTD_oqu2oP-1" vertex="1">
          <mxGeometry y="130" width="180" height="25" as="geometry" />
        </mxCell>
        <mxCell id="qOU1-5jlqHvTD_oqu2oP-70" value="FK" style="shape=partialRectangle;connectable=0;fillColor=none;top=0;left=0;bottom=0;right=0;editable=1;overflow=hidden;whiteSpace=wrap;html=1;" parent="qOU1-5jlqHvTD_oqu2oP-69" vertex="1">
          <mxGeometry width="30" height="25" as="geometry">
            <mxRectangle width="30" height="25" as="alternateBounds" />
          </mxGeometry>
        </mxCell>
        <mxCell id="qOU1-5jlqHvTD_oqu2oP-71" value="opSystemId" style="shape=partialRectangle;connectable=0;fillColor=none;top=0;left=0;bottom=0;right=0;align=left;spacingLeft=6;overflow=hidden;whiteSpace=wrap;html=1;" parent="qOU1-5jlqHvTD_oqu2oP-69" vertex="1">
          <mxGeometry x="30" width="150" height="25" as="geometry">
            <mxRectangle width="150" height="25" as="alternateBounds" />
          </mxGeometry>
        </mxCell>
        <mxCell id="qOU1-5jlqHvTD_oqu2oP-72" value="" style="shape=tableRow;horizontal=0;startSize=0;swimlaneHead=0;swimlaneBody=0;fillColor=none;collapsible=0;dropTarget=0;points=[[0,0.5],[1,0.5]];portConstraint=eastwest;top=0;left=0;right=0;bottom=0;" parent="qOU1-5jlqHvTD_oqu2oP-1" vertex="1">
          <mxGeometry y="155" width="180" height="25" as="geometry" />
        </mxCell>
        <mxCell id="qOU1-5jlqHvTD_oqu2oP-73" value="FK" style="shape=partialRectangle;connectable=0;fillColor=none;top=0;left=0;bottom=0;right=0;editable=1;overflow=hidden;whiteSpace=wrap;html=1;" parent="qOU1-5jlqHvTD_oqu2oP-72" vertex="1">
          <mxGeometry width="30" height="25" as="geometry">
            <mxRectangle width="30" height="25" as="alternateBounds" />
          </mxGeometry>
        </mxCell>
        <mxCell id="qOU1-5jlqHvTD_oqu2oP-74" value="ideId" style="shape=partialRectangle;connectable=0;fillColor=none;top=0;left=0;bottom=0;right=0;align=left;spacingLeft=6;overflow=hidden;whiteSpace=wrap;html=1;" parent="qOU1-5jlqHvTD_oqu2oP-72" vertex="1">
          <mxGeometry x="30" width="150" height="25" as="geometry">
            <mxRectangle width="150" height="25" as="alternateBounds" />
          </mxGeometry>
        </mxCell>
        <mxCell id="qOU1-5jlqHvTD_oqu2oP-136" value="" style="shape=tableRow;horizontal=0;startSize=0;swimlaneHead=0;swimlaneBody=0;fillColor=none;collapsible=0;dropTarget=0;points=[[0,0.5],[1,0.5]];portConstraint=eastwest;top=0;left=0;right=0;bottom=0;" parent="qOU1-5jlqHvTD_oqu2oP-1" vertex="1">
          <mxGeometry y="180" width="180" height="25" as="geometry" />
        </mxCell>
        <mxCell id="qOU1-5jlqHvTD_oqu2oP-137" value="" style="shape=partialRectangle;connectable=0;fillColor=none;top=0;left=0;bottom=0;right=0;editable=1;overflow=hidden;whiteSpace=wrap;html=1;" parent="qOU1-5jlqHvTD_oqu2oP-136" vertex="1">
          <mxGeometry width="30" height="25" as="geometry">
            <mxRectangle width="30" height="25" as="alternateBounds" />
          </mxGeometry>
        </mxCell>
        <mxCell id="qOU1-5jlqHvTD_oqu2oP-138" value="voteCount" style="shape=partialRectangle;connectable=0;fillColor=none;top=0;left=0;bottom=0;right=0;align=left;spacingLeft=6;overflow=hidden;whiteSpace=wrap;html=1;" parent="qOU1-5jlqHvTD_oqu2oP-136" vertex="1">
          <mxGeometry x="30" width="150" height="25" as="geometry">
            <mxRectangle width="150" height="25" as="alternateBounds" />
          </mxGeometry>
        </mxCell>
        <mxCell id="qOU1-5jlqHvTD_oqu2oP-139" value="" style="shape=tableRow;horizontal=0;startSize=0;swimlaneHead=0;swimlaneBody=0;fillColor=none;collapsible=0;dropTarget=0;points=[[0,0.5],[1,0.5]];portConstraint=eastwest;top=0;left=0;right=0;bottom=0;" parent="qOU1-5jlqHvTD_oqu2oP-1" vertex="1">
          <mxGeometry y="205" width="180" height="25" as="geometry" />
        </mxCell>
        <mxCell id="qOU1-5jlqHvTD_oqu2oP-140" value="" style="shape=partialRectangle;connectable=0;fillColor=none;top=0;left=0;bottom=0;right=0;editable=1;overflow=hidden;whiteSpace=wrap;html=1;" parent="qOU1-5jlqHvTD_oqu2oP-139" vertex="1">
          <mxGeometry width="30" height="25" as="geometry">
            <mxRectangle width="30" height="25" as="alternateBounds" />
          </mxGeometry>
        </mxCell>
        <mxCell id="qOU1-5jlqHvTD_oqu2oP-141" value="answerCount" style="shape=partialRectangle;connectable=0;fillColor=none;top=0;left=0;bottom=0;right=0;align=left;spacingLeft=6;overflow=hidden;whiteSpace=wrap;html=1;" parent="qOU1-5jlqHvTD_oqu2oP-139" vertex="1">
          <mxGeometry x="30" width="150" height="25" as="geometry">
            <mxRectangle width="150" height="25" as="alternateBounds" />
          </mxGeometry>
        </mxCell>
        <mxCell id="qOU1-5jlqHvTD_oqu2oP-142" value="" style="shape=tableRow;horizontal=0;startSize=0;swimlaneHead=0;swimlaneBody=0;fillColor=none;collapsible=0;dropTarget=0;points=[[0,0.5],[1,0.5]];portConstraint=eastwest;top=0;left=0;right=0;bottom=0;" parent="qOU1-5jlqHvTD_oqu2oP-1" vertex="1">
          <mxGeometry y="230" width="180" height="25" as="geometry" />
        </mxCell>
        <mxCell id="qOU1-5jlqHvTD_oqu2oP-143" value="" style="shape=partialRectangle;connectable=0;fillColor=none;top=0;left=0;bottom=0;right=0;editable=1;overflow=hidden;whiteSpace=wrap;html=1;" parent="qOU1-5jlqHvTD_oqu2oP-142" vertex="1">
          <mxGeometry width="30" height="25" as="geometry">
            <mxRectangle width="30" height="25" as="alternateBounds" />
          </mxGeometry>
        </mxCell>
        <mxCell id="qOU1-5jlqHvTD_oqu2oP-144" value="viewCount" style="shape=partialRectangle;connectable=0;fillColor=none;top=0;left=0;bottom=0;right=0;align=left;spacingLeft=6;overflow=hidden;whiteSpace=wrap;html=1;" parent="qOU1-5jlqHvTD_oqu2oP-142" vertex="1">
          <mxGeometry x="30" width="150" height="25" as="geometry">
            <mxRectangle width="150" height="25" as="alternateBounds" />
          </mxGeometry>
        </mxCell>
        <mxCell id="qOU1-5jlqHvTD_oqu2oP-44" value="" style="shape=tableRow;horizontal=0;startSize=0;swimlaneHead=0;swimlaneBody=0;fillColor=none;collapsible=0;dropTarget=0;points=[[0,0.5],[1,0.5]];portConstraint=eastwest;top=0;left=0;right=0;bottom=0;" parent="qOU1-5jlqHvTD_oqu2oP-1" vertex="1">
          <mxGeometry y="255" width="180" height="25" as="geometry" />
        </mxCell>
        <mxCell id="qOU1-5jlqHvTD_oqu2oP-45" value="&lt;span style=&quot;white-space: pre;&quot;&gt;&#x9;&lt;/span&gt;" style="shape=partialRectangle;connectable=0;fillColor=none;top=0;left=0;bottom=0;right=0;editable=1;overflow=hidden;whiteSpace=wrap;html=1;" parent="qOU1-5jlqHvTD_oqu2oP-44" vertex="1">
          <mxGeometry width="30" height="25" as="geometry">
            <mxRectangle width="30" height="25" as="alternateBounds" />
          </mxGeometry>
        </mxCell>
        <mxCell id="qOU1-5jlqHvTD_oqu2oP-46" value="creationTime" style="shape=partialRectangle;connectable=0;fillColor=none;top=0;left=0;bottom=0;right=0;align=left;spacingLeft=6;overflow=hidden;whiteSpace=wrap;html=1;" parent="qOU1-5jlqHvTD_oqu2oP-44" vertex="1">
          <mxGeometry x="30" width="150" height="25" as="geometry">
            <mxRectangle width="150" height="25" as="alternateBounds" />
          </mxGeometry>
        </mxCell>
        <mxCell id="qOU1-5jlqHvTD_oqu2oP-47" value="" style="shape=tableRow;horizontal=0;startSize=0;swimlaneHead=0;swimlaneBody=0;fillColor=none;collapsible=0;dropTarget=0;points=[[0,0.5],[1,0.5]];portConstraint=eastwest;top=0;left=0;right=0;bottom=0;" parent="qOU1-5jlqHvTD_oqu2oP-1" vertex="1">
          <mxGeometry y="280" width="180" height="25" as="geometry" />
        </mxCell>
        <mxCell id="qOU1-5jlqHvTD_oqu2oP-48" value="" style="shape=partialRectangle;connectable=0;fillColor=none;top=0;left=0;bottom=0;right=0;editable=1;overflow=hidden;whiteSpace=wrap;html=1;" parent="qOU1-5jlqHvTD_oqu2oP-47" vertex="1">
          <mxGeometry width="30" height="25" as="geometry">
            <mxRectangle width="30" height="25" as="alternateBounds" />
          </mxGeometry>
        </mxCell>
        <mxCell id="qOU1-5jlqHvTD_oqu2oP-49" value="lastModificationTime" style="shape=partialRectangle;connectable=0;fillColor=none;top=0;left=0;bottom=0;right=0;align=left;spacingLeft=6;overflow=hidden;whiteSpace=wrap;html=1;" parent="qOU1-5jlqHvTD_oqu2oP-47" vertex="1">
          <mxGeometry x="30" width="150" height="25" as="geometry">
            <mxRectangle width="150" height="25" as="alternateBounds" />
          </mxGeometry>
        </mxCell>
        <mxCell id="qOU1-5jlqHvTD_oqu2oP-78" value="Platforms" style="shape=table;startSize=30;container=1;collapsible=1;childLayout=tableLayout;fixedRows=1;rowLines=0;fontStyle=1;align=center;resizeLast=1;html=1;spacing=1;verticalAlign=middle;" parent="1" vertex="1">
          <mxGeometry x="1280" y="364.5" width="183" height="81" as="geometry" />
        </mxCell>
        <mxCell id="qOU1-5jlqHvTD_oqu2oP-79" value="" style="shape=tableRow;horizontal=0;startSize=0;swimlaneHead=0;swimlaneBody=0;fillColor=none;collapsible=0;dropTarget=0;points=[[0,0.5],[1,0.5]];portConstraint=eastwest;top=0;left=0;right=0;bottom=1;" parent="qOU1-5jlqHvTD_oqu2oP-78" vertex="1">
          <mxGeometry y="30" width="183" height="25" as="geometry" />
        </mxCell>
        <mxCell id="qOU1-5jlqHvTD_oqu2oP-80" value="PK" style="shape=partialRectangle;connectable=0;fillColor=none;top=0;left=0;bottom=0;right=0;fontStyle=1;overflow=hidden;whiteSpace=wrap;html=1;" parent="qOU1-5jlqHvTD_oqu2oP-79" vertex="1">
          <mxGeometry width="30" height="25" as="geometry">
            <mxRectangle width="30" height="25" as="alternateBounds" />
          </mxGeometry>
        </mxCell>
        <mxCell id="qOU1-5jlqHvTD_oqu2oP-81" value="platformId" style="shape=partialRectangle;connectable=0;fillColor=none;top=0;left=0;bottom=0;right=0;align=left;spacingLeft=6;fontStyle=5;overflow=hidden;whiteSpace=wrap;html=1;" parent="qOU1-5jlqHvTD_oqu2oP-79" vertex="1">
          <mxGeometry x="30" width="153" height="25" as="geometry">
            <mxRectangle width="153" height="25" as="alternateBounds" />
          </mxGeometry>
        </mxCell>
        <mxCell id="qOU1-5jlqHvTD_oqu2oP-82" value="" style="shape=tableRow;horizontal=0;startSize=0;swimlaneHead=0;swimlaneBody=0;fillColor=none;collapsible=0;dropTarget=0;points=[[0,0.5],[1,0.5]];portConstraint=eastwest;top=0;left=0;right=0;bottom=0;" parent="qOU1-5jlqHvTD_oqu2oP-78" vertex="1">
          <mxGeometry y="55" width="183" height="25" as="geometry" />
        </mxCell>
        <mxCell id="qOU1-5jlqHvTD_oqu2oP-83" value="" style="shape=partialRectangle;connectable=0;fillColor=none;top=0;left=0;bottom=0;right=0;editable=1;overflow=hidden;whiteSpace=wrap;html=1;" parent="qOU1-5jlqHvTD_oqu2oP-82" vertex="1">
          <mxGeometry width="30" height="25" as="geometry">
            <mxRectangle width="30" height="25" as="alternateBounds" />
          </mxGeometry>
        </mxCell>
        <mxCell id="qOU1-5jlqHvTD_oqu2oP-84" value="platformName" style="shape=partialRectangle;connectable=0;fillColor=none;top=0;left=0;bottom=0;right=0;align=left;spacingLeft=6;overflow=hidden;whiteSpace=wrap;html=1;" parent="qOU1-5jlqHvTD_oqu2oP-82" vertex="1">
          <mxGeometry x="30" width="153" height="25" as="geometry">
            <mxRectangle width="153" height="25" as="alternateBounds" />
          </mxGeometry>
        </mxCell>
        <mxCell id="qOU1-5jlqHvTD_oqu2oP-100" value="Operating_Systems" style="shape=table;startSize=30;container=1;collapsible=1;childLayout=tableLayout;fixedRows=1;rowLines=0;fontStyle=1;align=center;resizeLast=1;html=1;spacing=1;verticalAlign=middle;" parent="1" vertex="1">
          <mxGeometry x="1280" y="520" width="180" height="80" as="geometry" />
        </mxCell>
        <mxCell id="qOU1-5jlqHvTD_oqu2oP-101" value="" style="shape=tableRow;horizontal=0;startSize=0;swimlaneHead=0;swimlaneBody=0;fillColor=none;collapsible=0;dropTarget=0;points=[[0,0.5],[1,0.5]];portConstraint=eastwest;top=0;left=0;right=0;bottom=1;" parent="qOU1-5jlqHvTD_oqu2oP-100" vertex="1">
          <mxGeometry y="30" width="180" height="25" as="geometry" />
        </mxCell>
        <mxCell id="qOU1-5jlqHvTD_oqu2oP-102" value="PK" style="shape=partialRectangle;connectable=0;fillColor=none;top=0;left=0;bottom=0;right=0;fontStyle=1;overflow=hidden;whiteSpace=wrap;html=1;" parent="qOU1-5jlqHvTD_oqu2oP-101" vertex="1">
          <mxGeometry width="30" height="25" as="geometry">
            <mxRectangle width="30" height="25" as="alternateBounds" />
          </mxGeometry>
        </mxCell>
        <mxCell id="qOU1-5jlqHvTD_oqu2oP-103" value="opSystemId" style="shape=partialRectangle;connectable=0;fillColor=none;top=0;left=0;bottom=0;right=0;align=left;spacingLeft=6;fontStyle=5;overflow=hidden;whiteSpace=wrap;html=1;" parent="qOU1-5jlqHvTD_oqu2oP-101" vertex="1">
          <mxGeometry x="30" width="150" height="25" as="geometry">
            <mxRectangle width="150" height="25" as="alternateBounds" />
          </mxGeometry>
        </mxCell>
        <mxCell id="qOU1-5jlqHvTD_oqu2oP-104" value="" style="shape=tableRow;horizontal=0;startSize=0;swimlaneHead=0;swimlaneBody=0;fillColor=none;collapsible=0;dropTarget=0;points=[[0,0.5],[1,0.5]];portConstraint=eastwest;top=0;left=0;right=0;bottom=0;" parent="qOU1-5jlqHvTD_oqu2oP-100" vertex="1">
          <mxGeometry y="55" width="180" height="25" as="geometry" />
        </mxCell>
        <mxCell id="qOU1-5jlqHvTD_oqu2oP-105" value="" style="shape=partialRectangle;connectable=0;fillColor=none;top=0;left=0;bottom=0;right=0;editable=1;overflow=hidden;whiteSpace=wrap;html=1;" parent="qOU1-5jlqHvTD_oqu2oP-104" vertex="1">
          <mxGeometry width="30" height="25" as="geometry">
            <mxRectangle width="30" height="25" as="alternateBounds" />
          </mxGeometry>
        </mxCell>
        <mxCell id="qOU1-5jlqHvTD_oqu2oP-106" value="opSystemName" style="shape=partialRectangle;connectable=0;fillColor=none;top=0;left=0;bottom=0;right=0;align=left;spacingLeft=6;overflow=hidden;whiteSpace=wrap;html=1;" parent="qOU1-5jlqHvTD_oqu2oP-104" vertex="1">
          <mxGeometry x="30" width="150" height="25" as="geometry">
            <mxRectangle width="150" height="25" as="alternateBounds" />
          </mxGeometry>
        </mxCell>
        <mxCell id="qOU1-5jlqHvTD_oqu2oP-107" value="Ides" style="shape=table;startSize=30;container=1;collapsible=1;childLayout=tableLayout;fixedRows=1;rowLines=0;fontStyle=1;align=center;resizeLast=1;html=1;spacing=1;verticalAlign=middle;" parent="1" vertex="1">
          <mxGeometry x="1284.5" y="640" width="175.5" height="84" as="geometry" />
        </mxCell>
        <mxCell id="qOU1-5jlqHvTD_oqu2oP-108" value="" style="shape=tableRow;horizontal=0;startSize=0;swimlaneHead=0;swimlaneBody=0;fillColor=none;collapsible=0;dropTarget=0;points=[[0,0.5],[1,0.5]];portConstraint=eastwest;top=0;left=0;right=0;bottom=1;" parent="qOU1-5jlqHvTD_oqu2oP-107" vertex="1">
          <mxGeometry y="30" width="175.5" height="25" as="geometry" />
        </mxCell>
        <mxCell id="qOU1-5jlqHvTD_oqu2oP-109" value="PK" style="shape=partialRectangle;connectable=0;fillColor=none;top=0;left=0;bottom=0;right=0;fontStyle=1;overflow=hidden;whiteSpace=wrap;html=1;" parent="qOU1-5jlqHvTD_oqu2oP-108" vertex="1">
          <mxGeometry width="30" height="25" as="geometry">
            <mxRectangle width="30" height="25" as="alternateBounds" />
          </mxGeometry>
        </mxCell>
        <mxCell id="qOU1-5jlqHvTD_oqu2oP-110" value="ideId" style="shape=partialRectangle;connectable=0;fillColor=none;top=0;left=0;bottom=0;right=0;align=left;spacingLeft=6;fontStyle=5;overflow=hidden;whiteSpace=wrap;html=1;" parent="qOU1-5jlqHvTD_oqu2oP-108" vertex="1">
          <mxGeometry x="30" width="145.5" height="25" as="geometry">
            <mxRectangle width="145.5" height="25" as="alternateBounds" />
          </mxGeometry>
        </mxCell>
        <mxCell id="qOU1-5jlqHvTD_oqu2oP-111" value="" style="shape=tableRow;horizontal=0;startSize=0;swimlaneHead=0;swimlaneBody=0;fillColor=none;collapsible=0;dropTarget=0;points=[[0,0.5],[1,0.5]];portConstraint=eastwest;top=0;left=0;right=0;bottom=0;" parent="qOU1-5jlqHvTD_oqu2oP-107" vertex="1">
          <mxGeometry y="55" width="175.5" height="25" as="geometry" />
        </mxCell>
        <mxCell id="qOU1-5jlqHvTD_oqu2oP-112" value="" style="shape=partialRectangle;connectable=0;fillColor=none;top=0;left=0;bottom=0;right=0;editable=1;overflow=hidden;whiteSpace=wrap;html=1;" parent="qOU1-5jlqHvTD_oqu2oP-111" vertex="1">
          <mxGeometry width="30" height="25" as="geometry">
            <mxRectangle width="30" height="25" as="alternateBounds" />
          </mxGeometry>
        </mxCell>
        <mxCell id="qOU1-5jlqHvTD_oqu2oP-113" value="ideName" style="shape=partialRectangle;connectable=0;fillColor=none;top=0;left=0;bottom=0;right=0;align=left;spacingLeft=6;overflow=hidden;whiteSpace=wrap;html=1;" parent="qOU1-5jlqHvTD_oqu2oP-111" vertex="1">
          <mxGeometry x="30" width="145.5" height="25" as="geometry">
            <mxRectangle width="145.5" height="25" as="alternateBounds" />
          </mxGeometry>
        </mxCell>
        <mxCell id="qOU1-5jlqHvTD_oqu2oP-151" value="Tags" style="shape=table;startSize=30;container=1;collapsible=1;childLayout=tableLayout;fixedRows=1;rowLines=0;fontStyle=1;align=center;resizeLast=1;html=1;spacing=1;verticalAlign=middle;" parent="1" vertex="1">
          <mxGeometry x="1280" y="222" width="183" height="80" as="geometry" />
        </mxCell>
        <mxCell id="qOU1-5jlqHvTD_oqu2oP-152" value="" style="shape=tableRow;horizontal=0;startSize=0;swimlaneHead=0;swimlaneBody=0;fillColor=none;collapsible=0;dropTarget=0;points=[[0,0.5],[1,0.5]];portConstraint=eastwest;top=0;left=0;right=0;bottom=1;" parent="qOU1-5jlqHvTD_oqu2oP-151" vertex="1">
          <mxGeometry y="30" width="183" height="25" as="geometry" />
        </mxCell>
        <mxCell id="qOU1-5jlqHvTD_oqu2oP-153" value="PK" style="shape=partialRectangle;connectable=0;fillColor=none;top=0;left=0;bottom=0;right=0;fontStyle=1;overflow=hidden;whiteSpace=wrap;html=1;" parent="qOU1-5jlqHvTD_oqu2oP-152" vertex="1">
          <mxGeometry width="30" height="25" as="geometry">
            <mxRectangle width="30" height="25" as="alternateBounds" />
          </mxGeometry>
        </mxCell>
        <mxCell id="qOU1-5jlqHvTD_oqu2oP-154" value="tagId" style="shape=partialRectangle;connectable=0;fillColor=none;top=0;left=0;bottom=0;right=0;align=left;spacingLeft=6;fontStyle=5;overflow=hidden;whiteSpace=wrap;html=1;" parent="qOU1-5jlqHvTD_oqu2oP-152" vertex="1">
          <mxGeometry x="30" width="153" height="25" as="geometry">
            <mxRectangle width="153" height="25" as="alternateBounds" />
          </mxGeometry>
        </mxCell>
        <mxCell id="qOU1-5jlqHvTD_oqu2oP-155" value="" style="shape=tableRow;horizontal=0;startSize=0;swimlaneHead=0;swimlaneBody=0;fillColor=none;collapsible=0;dropTarget=0;points=[[0,0.5],[1,0.5]];portConstraint=eastwest;top=0;left=0;right=0;bottom=0;" parent="qOU1-5jlqHvTD_oqu2oP-151" vertex="1">
          <mxGeometry y="55" width="183" height="25" as="geometry" />
        </mxCell>
        <mxCell id="qOU1-5jlqHvTD_oqu2oP-156" value="" style="shape=partialRectangle;connectable=0;fillColor=none;top=0;left=0;bottom=0;right=0;editable=1;overflow=hidden;whiteSpace=wrap;html=1;" parent="qOU1-5jlqHvTD_oqu2oP-155" vertex="1">
          <mxGeometry width="30" height="25" as="geometry">
            <mxRectangle width="30" height="25" as="alternateBounds" />
          </mxGeometry>
        </mxCell>
        <mxCell id="qOU1-5jlqHvTD_oqu2oP-157" value="tag" style="shape=partialRectangle;connectable=0;fillColor=none;top=0;left=0;bottom=0;right=0;align=left;spacingLeft=6;overflow=hidden;whiteSpace=wrap;html=1;" parent="qOU1-5jlqHvTD_oqu2oP-155" vertex="1">
          <mxGeometry x="30" width="153" height="25" as="geometry">
            <mxRectangle width="153" height="25" as="alternateBounds" />
          </mxGeometry>
        </mxCell>
        <mxCell id="tYSgIUjlhCanpnmfUqg1-1" value="Question_Tags" style="shape=table;startSize=30;container=1;collapsible=1;childLayout=tableLayout;fixedRows=1;rowLines=0;fontStyle=1;align=center;resizeLast=1;html=1;spacing=1;verticalAlign=middle;" parent="1" vertex="1">
          <mxGeometry x="1002" y="223.75" width="183.99999999999977" height="99.5" as="geometry" />
        </mxCell>
        <mxCell id="tYSgIUjlhCanpnmfUqg1-2" value="" style="shape=tableRow;horizontal=0;startSize=0;swimlaneHead=0;swimlaneBody=0;fillColor=none;collapsible=0;dropTarget=0;points=[[0,0.5],[1,0.5]];portConstraint=eastwest;top=0;left=0;right=0;bottom=1;" parent="tYSgIUjlhCanpnmfUqg1-1" vertex="1">
          <mxGeometry y="30" width="183.99999999999977" height="25" as="geometry" />
        </mxCell>
        <mxCell id="tYSgIUjlhCanpnmfUqg1-3" value="PK FK" style="shape=partialRectangle;connectable=0;fillColor=none;top=0;left=0;bottom=0;right=0;fontStyle=1;overflow=hidden;whiteSpace=wrap;html=1;" parent="tYSgIUjlhCanpnmfUqg1-2" vertex="1">
          <mxGeometry width="50" height="25" as="geometry">
            <mxRectangle width="50" height="25" as="alternateBounds" />
          </mxGeometry>
        </mxCell>
        <mxCell id="tYSgIUjlhCanpnmfUqg1-4" value="questionId" style="shape=partialRectangle;connectable=0;fillColor=none;top=0;left=0;bottom=0;right=0;align=left;spacingLeft=6;fontStyle=5;overflow=hidden;whiteSpace=wrap;html=1;" parent="tYSgIUjlhCanpnmfUqg1-2" vertex="1">
          <mxGeometry x="50" width="133.99999999999977" height="25" as="geometry">
            <mxRectangle width="133.99999999999977" height="25" as="alternateBounds" />
          </mxGeometry>
        </mxCell>
        <mxCell id="tYSgIUjlhCanpnmfUqg1-5" value="" style="shape=tableRow;horizontal=0;startSize=0;swimlaneHead=0;swimlaneBody=0;fillColor=none;collapsible=0;dropTarget=0;points=[[0,0.5],[1,0.5]];portConstraint=eastwest;top=0;left=0;right=0;bottom=0;" parent="tYSgIUjlhCanpnmfUqg1-1" vertex="1">
          <mxGeometry y="55" width="183.99999999999977" height="22" as="geometry" />
        </mxCell>
        <mxCell id="tYSgIUjlhCanpnmfUqg1-6" value="PK FK" style="shape=partialRectangle;connectable=0;fillColor=none;top=0;left=0;bottom=0;right=0;editable=1;overflow=hidden;whiteSpace=wrap;html=1;" parent="tYSgIUjlhCanpnmfUqg1-5" vertex="1">
          <mxGeometry width="50" height="22" as="geometry">
            <mxRectangle width="50" height="22" as="alternateBounds" />
          </mxGeometry>
        </mxCell>
        <mxCell id="tYSgIUjlhCanpnmfUqg1-7" value="&lt;span style=&quot;font-weight: 700; text-decoration-line: underline;&quot;&gt;tagId&lt;/span&gt;" style="shape=partialRectangle;connectable=0;fillColor=none;top=0;left=0;bottom=0;right=0;align=left;spacingLeft=6;overflow=hidden;whiteSpace=wrap;html=1;" parent="tYSgIUjlhCanpnmfUqg1-5" vertex="1">
          <mxGeometry x="50" width="133.99999999999977" height="22" as="geometry">
            <mxRectangle width="133.99999999999977" height="22" as="alternateBounds" />
          </mxGeometry>
        </mxCell>
        <mxCell id="uM7UqItA-UbJx1vcgZxR-1" value="" style="shape=tableRow;horizontal=0;startSize=0;swimlaneHead=0;swimlaneBody=0;fillColor=none;collapsible=0;dropTarget=0;points=[[0,0.5],[1,0.5]];portConstraint=eastwest;top=0;left=0;right=0;bottom=0;" parent="tYSgIUjlhCanpnmfUqg1-1" vertex="1">
          <mxGeometry y="77" width="183.99999999999977" height="22" as="geometry" />
        </mxCell>
        <mxCell id="uM7UqItA-UbJx1vcgZxR-2" value="" style="shape=partialRectangle;connectable=0;fillColor=none;top=0;left=0;bottom=0;right=0;editable=1;overflow=hidden;whiteSpace=wrap;html=1;" parent="uM7UqItA-UbJx1vcgZxR-1" vertex="1">
          <mxGeometry width="50" height="22" as="geometry">
            <mxRectangle width="50" height="22" as="alternateBounds" />
          </mxGeometry>
        </mxCell>
        <mxCell id="uM7UqItA-UbJx1vcgZxR-3" value="&lt;span style=&quot;font-weight: 700; text-decoration-line: underline;&quot;&gt;creationTime&lt;/span&gt;" style="shape=partialRectangle;connectable=0;fillColor=none;top=0;left=0;bottom=0;right=0;align=left;spacingLeft=6;overflow=hidden;whiteSpace=wrap;html=1;" parent="uM7UqItA-UbJx1vcgZxR-1" vertex="1">
          <mxGeometry x="50" width="133.99999999999977" height="22" as="geometry">
            <mxRectangle width="133.99999999999977" height="22" as="alternateBounds" />
          </mxGeometry>
        </mxCell>
        <mxCell id="tYSgIUjlhCanpnmfUqg1-35" value="" style="edgeStyle=orthogonalEdgeStyle;fontSize=12;html=1;endArrow=ERzeroToMany;startArrow=ERmandOne;rounded=0;exitX=1;exitY=0.5;exitDx=0;exitDy=0;entryX=0;entryY=0.5;entryDx=0;entryDy=0;shadow=0;strokeWidth=2;dashed=1;endFill=0;" parent="1" source="yLUDJvTatkyBeT4OISrp-2" target="qOU1-5jlqHvTD_oqu2oP-145" edge="1">
          <mxGeometry width="100" height="100" relative="1" as="geometry">
            <mxPoint x="574" y="886" as="sourcePoint" />
            <mxPoint x="674" y="786" as="targetPoint" />
          </mxGeometry>
        </mxCell>
        <mxCell id="tYSgIUjlhCanpnmfUqg1-50" style="rounded=0;orthogonalLoop=1;jettySize=auto;html=1;entryX=0;entryY=0.5;entryDx=0;entryDy=0;endArrow=ERoneToMany;endFill=0;startArrow=ERmandOne;startFill=0;strokeWidth=2;" parent="1" source="qOU1-5jlqHvTD_oqu2oP-2" target="tYSgIUjlhCanpnmfUqg1-2" edge="1">
          <mxGeometry relative="1" as="geometry" />
        </mxCell>
        <mxCell id="tYSgIUjlhCanpnmfUqg1-51" style="edgeStyle=orthogonalEdgeStyle;rounded=0;orthogonalLoop=1;jettySize=auto;html=1;exitX=1;exitY=0.5;exitDx=0;exitDy=0;endArrow=ERmandOne;endFill=0;startArrow=ERoneToMany;startFill=0;strokeWidth=2;dashed=1;entryX=0;entryY=0.5;entryDx=0;entryDy=0;" parent="1" source="qOU1-5jlqHvTD_oqu2oP-69" target="qOU1-5jlqHvTD_oqu2oP-101" edge="1">
          <mxGeometry relative="1" as="geometry">
            <Array as="points">
              <mxPoint x="920" y="365" />
              <mxPoint x="920" y="563" />
            </Array>
          </mxGeometry>
        </mxCell>
        <mxCell id="tYSgIUjlhCanpnmfUqg1-52" style="edgeStyle=orthogonalEdgeStyle;rounded=0;orthogonalLoop=1;jettySize=auto;html=1;entryX=0;entryY=0.5;entryDx=0;entryDy=0;endArrow=ERmandOne;endFill=0;startArrow=ERoneToMany;startFill=0;strokeWidth=2;dashed=1;" parent="1" source="qOU1-5jlqHvTD_oqu2oP-72" target="qOU1-5jlqHvTD_oqu2oP-108" edge="1">
          <mxGeometry relative="1" as="geometry">
            <Array as="points">
              <mxPoint x="890" y="389" />
              <mxPoint x="890" y="683" />
            </Array>
          </mxGeometry>
        </mxCell>
        <mxCell id="tYSgIUjlhCanpnmfUqg1-53" value="Question_Platforms" style="shape=table;startSize=30;container=1;collapsible=1;childLayout=tableLayout;fixedRows=1;rowLines=0;fontStyle=1;align=center;resizeLast=1;html=1;spacing=1;verticalAlign=middle;" parent="1" vertex="1">
          <mxGeometry x="1000" y="364.5" width="186" height="109" as="geometry" />
        </mxCell>
        <mxCell id="tYSgIUjlhCanpnmfUqg1-54" value="" style="shape=tableRow;horizontal=0;startSize=0;swimlaneHead=0;swimlaneBody=0;fillColor=none;collapsible=0;dropTarget=0;points=[[0,0.5],[1,0.5]];portConstraint=eastwest;top=0;left=0;right=0;bottom=1;" parent="tYSgIUjlhCanpnmfUqg1-53" vertex="1">
          <mxGeometry y="30" width="186" height="25" as="geometry" />
        </mxCell>
        <mxCell id="tYSgIUjlhCanpnmfUqg1-55" value="PK FK" style="shape=partialRectangle;connectable=0;fillColor=none;top=0;left=0;bottom=0;right=0;fontStyle=1;overflow=hidden;whiteSpace=wrap;html=1;" parent="tYSgIUjlhCanpnmfUqg1-54" vertex="1">
          <mxGeometry width="50" height="25" as="geometry">
            <mxRectangle width="50" height="25" as="alternateBounds" />
          </mxGeometry>
        </mxCell>
        <mxCell id="tYSgIUjlhCanpnmfUqg1-56" value="questionId" style="shape=partialRectangle;connectable=0;fillColor=none;top=0;left=0;bottom=0;right=0;align=left;spacingLeft=6;fontStyle=5;overflow=hidden;whiteSpace=wrap;html=1;" parent="tYSgIUjlhCanpnmfUqg1-54" vertex="1">
          <mxGeometry x="50" width="136" height="25" as="geometry">
            <mxRectangle width="136" height="25" as="alternateBounds" />
          </mxGeometry>
        </mxCell>
        <mxCell id="tYSgIUjlhCanpnmfUqg1-57" value="" style="shape=tableRow;horizontal=0;startSize=0;swimlaneHead=0;swimlaneBody=0;fillColor=none;collapsible=0;dropTarget=0;points=[[0,0.5],[1,0.5]];portConstraint=eastwest;top=0;left=0;right=0;bottom=0;" parent="tYSgIUjlhCanpnmfUqg1-53" vertex="1">
          <mxGeometry y="55" width="186" height="25" as="geometry" />
        </mxCell>
        <mxCell id="tYSgIUjlhCanpnmfUqg1-58" value="PK FK" style="shape=partialRectangle;connectable=0;fillColor=none;top=0;left=0;bottom=0;right=0;editable=1;overflow=hidden;whiteSpace=wrap;html=1;" parent="tYSgIUjlhCanpnmfUqg1-57" vertex="1">
          <mxGeometry width="50" height="25" as="geometry">
            <mxRectangle width="50" height="25" as="alternateBounds" />
          </mxGeometry>
        </mxCell>
        <mxCell id="tYSgIUjlhCanpnmfUqg1-59" value="&lt;span style=&quot;font-weight: 700; text-decoration-line: underline;&quot;&gt;platformId&lt;/span&gt;" style="shape=partialRectangle;connectable=0;fillColor=none;top=0;left=0;bottom=0;right=0;align=left;spacingLeft=6;overflow=hidden;whiteSpace=wrap;html=1;" parent="tYSgIUjlhCanpnmfUqg1-57" vertex="1">
          <mxGeometry x="50" width="136" height="25" as="geometry">
            <mxRectangle width="136" height="25" as="alternateBounds" />
          </mxGeometry>
        </mxCell>
        <mxCell id="uM7UqItA-UbJx1vcgZxR-11" value="" style="shape=tableRow;horizontal=0;startSize=0;swimlaneHead=0;swimlaneBody=0;fillColor=none;collapsible=0;dropTarget=0;points=[[0,0.5],[1,0.5]];portConstraint=eastwest;top=0;left=0;right=0;bottom=0;" parent="tYSgIUjlhCanpnmfUqg1-53" vertex="1">
          <mxGeometry y="80" width="186" height="25" as="geometry" />
        </mxCell>
        <mxCell id="uM7UqItA-UbJx1vcgZxR-12" value="" style="shape=partialRectangle;connectable=0;fillColor=none;top=0;left=0;bottom=0;right=0;editable=1;overflow=hidden;whiteSpace=wrap;html=1;" parent="uM7UqItA-UbJx1vcgZxR-11" vertex="1">
          <mxGeometry width="50" height="25" as="geometry">
            <mxRectangle width="50" height="25" as="alternateBounds" />
          </mxGeometry>
        </mxCell>
        <mxCell id="uM7UqItA-UbJx1vcgZxR-13" value="&lt;span style=&quot;font-weight: 700; text-decoration-line: underline;&quot;&gt;creationTime&lt;/span&gt;" style="shape=partialRectangle;connectable=0;fillColor=none;top=0;left=0;bottom=0;right=0;align=left;spacingLeft=6;overflow=hidden;whiteSpace=wrap;html=1;" parent="uM7UqItA-UbJx1vcgZxR-11" vertex="1">
          <mxGeometry x="50" width="136" height="25" as="geometry">
            <mxRectangle width="136" height="25" as="alternateBounds" />
          </mxGeometry>
        </mxCell>
        <mxCell id="tYSgIUjlhCanpnmfUqg1-60" style="edgeStyle=elbowEdgeStyle;rounded=0;orthogonalLoop=1;jettySize=auto;html=1;entryX=0;entryY=0.5;entryDx=0;entryDy=0;strokeWidth=2;endArrow=ERoneToMany;endFill=0;startArrow=ERmandOne;startFill=0;" parent="1" target="tYSgIUjlhCanpnmfUqg1-54" edge="1">
          <mxGeometry relative="1" as="geometry">
            <mxPoint x="814" y="265" as="sourcePoint" />
            <Array as="points">
              <mxPoint x="950" y="460" />
              <mxPoint x="1000" y="420" />
              <mxPoint x="990" y="420" />
            </Array>
          </mxGeometry>
        </mxCell>
        <mxCell id="tYSgIUjlhCanpnmfUqg1-61" style="edgeStyle=orthogonalEdgeStyle;rounded=0;orthogonalLoop=1;jettySize=auto;html=1;exitX=0;exitY=0.5;exitDx=0;exitDy=0;entryX=1;entryY=0.5;entryDx=0;entryDy=0;endArrow=ERzeroToMany;endFill=0;startArrow=ERmandOne;startFill=0;strokeWidth=2;" parent="1" source="qOU1-5jlqHvTD_oqu2oP-79" target="tYSgIUjlhCanpnmfUqg1-57" edge="1">
          <mxGeometry relative="1" as="geometry" />
        </mxCell>
        <mxCell id="tYSgIUjlhCanpnmfUqg1-65" value="Question_Favorites" style="shape=table;startSize=30;container=1;collapsible=1;childLayout=tableLayout;fixedRows=1;rowLines=0;fontStyle=1;align=center;resizeLast=1;html=1;spacing=1;verticalAlign=middle;" parent="1" vertex="1">
          <mxGeometry x="334" y="220" width="188" height="105" as="geometry" />
        </mxCell>
        <mxCell id="tYSgIUjlhCanpnmfUqg1-66" value="" style="shape=tableRow;horizontal=0;startSize=0;swimlaneHead=0;swimlaneBody=0;fillColor=none;collapsible=0;dropTarget=0;points=[[0,0.5],[1,0.5]];portConstraint=eastwest;top=0;left=0;right=0;bottom=1;" parent="tYSgIUjlhCanpnmfUqg1-65" vertex="1">
          <mxGeometry y="30" width="188" height="25" as="geometry" />
        </mxCell>
        <mxCell id="tYSgIUjlhCanpnmfUqg1-67" value="PK FK" style="shape=partialRectangle;connectable=0;fillColor=none;top=0;left=0;bottom=0;right=0;fontStyle=1;overflow=hidden;whiteSpace=wrap;html=1;" parent="tYSgIUjlhCanpnmfUqg1-66" vertex="1">
          <mxGeometry width="60" height="25" as="geometry">
            <mxRectangle width="60" height="25" as="alternateBounds" />
          </mxGeometry>
        </mxCell>
        <mxCell id="tYSgIUjlhCanpnmfUqg1-68" value="questionId" style="shape=partialRectangle;connectable=0;fillColor=none;top=0;left=0;bottom=0;right=0;align=left;spacingLeft=6;fontStyle=5;overflow=hidden;whiteSpace=wrap;html=1;" parent="tYSgIUjlhCanpnmfUqg1-66" vertex="1">
          <mxGeometry x="60" width="128" height="25" as="geometry">
            <mxRectangle width="128" height="25" as="alternateBounds" />
          </mxGeometry>
        </mxCell>
        <mxCell id="tYSgIUjlhCanpnmfUqg1-69" value="" style="shape=tableRow;horizontal=0;startSize=0;swimlaneHead=0;swimlaneBody=0;fillColor=none;collapsible=0;dropTarget=0;points=[[0,0.5],[1,0.5]];portConstraint=eastwest;top=0;left=0;right=0;bottom=0;" parent="tYSgIUjlhCanpnmfUqg1-65" vertex="1">
          <mxGeometry y="55" width="188" height="25" as="geometry" />
        </mxCell>
        <mxCell id="tYSgIUjlhCanpnmfUqg1-70" value="PK FK" style="shape=partialRectangle;connectable=0;fillColor=none;top=0;left=0;bottom=0;right=0;editable=1;overflow=hidden;whiteSpace=wrap;html=1;" parent="tYSgIUjlhCanpnmfUqg1-69" vertex="1">
          <mxGeometry width="60" height="25" as="geometry">
            <mxRectangle width="60" height="25" as="alternateBounds" />
          </mxGeometry>
        </mxCell>
        <mxCell id="tYSgIUjlhCanpnmfUqg1-71" value="&lt;span style=&quot;font-weight: 700; text-decoration-line: underline;&quot;&gt;userId&lt;/span&gt;" style="shape=partialRectangle;connectable=0;fillColor=none;top=0;left=0;bottom=0;right=0;align=left;spacingLeft=6;overflow=hidden;whiteSpace=wrap;html=1;" parent="tYSgIUjlhCanpnmfUqg1-69" vertex="1">
          <mxGeometry x="60" width="128" height="25" as="geometry">
            <mxRectangle width="128" height="25" as="alternateBounds" />
          </mxGeometry>
        </mxCell>
        <mxCell id="tYSgIUjlhCanpnmfUqg1-75" value="" style="shape=tableRow;horizontal=0;startSize=0;swimlaneHead=0;swimlaneBody=0;fillColor=none;collapsible=0;dropTarget=0;points=[[0,0.5],[1,0.5]];portConstraint=eastwest;top=0;left=0;right=0;bottom=1;" parent="tYSgIUjlhCanpnmfUqg1-65" vertex="1">
          <mxGeometry y="80" width="188" height="25" as="geometry" />
        </mxCell>
        <mxCell id="tYSgIUjlhCanpnmfUqg1-76" value="" style="shape=partialRectangle;connectable=0;fillColor=none;top=0;left=0;bottom=0;right=0;fontStyle=1;overflow=hidden;whiteSpace=wrap;html=1;" parent="tYSgIUjlhCanpnmfUqg1-75" vertex="1">
          <mxGeometry width="60" height="25" as="geometry">
            <mxRectangle width="60" height="25" as="alternateBounds" />
          </mxGeometry>
        </mxCell>
        <mxCell id="tYSgIUjlhCanpnmfUqg1-77" value="creationTime" style="shape=partialRectangle;connectable=0;fillColor=none;top=0;left=0;bottom=0;right=0;align=left;spacingLeft=6;fontStyle=5;overflow=hidden;whiteSpace=wrap;html=1;" parent="tYSgIUjlhCanpnmfUqg1-75" vertex="1">
          <mxGeometry x="60" width="128" height="25" as="geometry">
            <mxRectangle width="128" height="25" as="alternateBounds" />
          </mxGeometry>
        </mxCell>
        <mxCell id="tYSgIUjlhCanpnmfUqg1-74" style="rounded=0;orthogonalLoop=1;jettySize=auto;html=1;strokeWidth=2;endArrow=ERzeroToMany;endFill=0;startArrow=ERmandOne;startFill=0;entryX=1;entryY=0.5;entryDx=0;entryDy=0;exitX=0;exitY=0.5;exitDx=0;exitDy=0;" parent="1" target="tYSgIUjlhCanpnmfUqg1-66" edge="1" source="qOU1-5jlqHvTD_oqu2oP-2">
          <mxGeometry relative="1" as="geometry">
            <mxPoint x="735" y="283" as="sourcePoint" />
            <mxPoint x="540" y="162.07" as="targetPoint" />
          </mxGeometry>
        </mxCell>
        <mxCell id="tYSgIUjlhCanpnmfUqg1-78" value="Answers" style="shape=table;startSize=30;container=1;collapsible=1;childLayout=tableLayout;fixedRows=1;rowLines=0;fontStyle=1;align=center;resizeLast=1;html=1;spacing=1;verticalAlign=middle;" parent="1" vertex="1">
          <mxGeometry x="634" y="570" width="180" height="205" as="geometry" />
        </mxCell>
        <mxCell id="tYSgIUjlhCanpnmfUqg1-79" value="" style="shape=tableRow;horizontal=0;startSize=0;swimlaneHead=0;swimlaneBody=0;fillColor=none;collapsible=0;dropTarget=0;points=[[0,0.5],[1,0.5]];portConstraint=eastwest;top=0;left=0;right=0;bottom=1;" parent="tYSgIUjlhCanpnmfUqg1-78" vertex="1">
          <mxGeometry y="30" width="180" height="25" as="geometry" />
        </mxCell>
        <mxCell id="tYSgIUjlhCanpnmfUqg1-80" value="PK" style="shape=partialRectangle;connectable=0;fillColor=none;top=0;left=0;bottom=0;right=0;fontStyle=1;overflow=hidden;whiteSpace=wrap;html=1;" parent="tYSgIUjlhCanpnmfUqg1-79" vertex="1">
          <mxGeometry width="30" height="25" as="geometry">
            <mxRectangle width="30" height="25" as="alternateBounds" />
          </mxGeometry>
        </mxCell>
        <mxCell id="tYSgIUjlhCanpnmfUqg1-81" value="answerId" style="shape=partialRectangle;connectable=0;fillColor=none;top=0;left=0;bottom=0;right=0;align=left;spacingLeft=6;fontStyle=5;overflow=hidden;whiteSpace=wrap;html=1;" parent="tYSgIUjlhCanpnmfUqg1-79" vertex="1">
          <mxGeometry x="30" width="150" height="25" as="geometry">
            <mxRectangle width="150" height="25" as="alternateBounds" />
          </mxGeometry>
        </mxCell>
        <mxCell id="tYSgIUjlhCanpnmfUqg1-82" value="" style="shape=tableRow;horizontal=0;startSize=0;swimlaneHead=0;swimlaneBody=0;fillColor=none;collapsible=0;dropTarget=0;points=[[0,0.5],[1,0.5]];portConstraint=eastwest;top=0;left=0;right=0;bottom=0;" parent="tYSgIUjlhCanpnmfUqg1-78" vertex="1">
          <mxGeometry y="55" width="180" height="25" as="geometry" />
        </mxCell>
        <mxCell id="tYSgIUjlhCanpnmfUqg1-83" value="FK" style="shape=partialRectangle;connectable=0;fillColor=none;top=0;left=0;bottom=0;right=0;editable=1;overflow=hidden;whiteSpace=wrap;html=1;" parent="tYSgIUjlhCanpnmfUqg1-82" vertex="1">
          <mxGeometry width="30" height="25" as="geometry">
            <mxRectangle width="30" height="25" as="alternateBounds" />
          </mxGeometry>
        </mxCell>
        <mxCell id="tYSgIUjlhCanpnmfUqg1-84" value="&lt;span style=&quot;font-weight: 700; text-decoration-line: underline;&quot;&gt;questionId&lt;/span&gt;" style="shape=partialRectangle;connectable=0;fillColor=none;top=0;left=0;bottom=0;right=0;align=left;spacingLeft=6;overflow=hidden;whiteSpace=wrap;html=1;" parent="tYSgIUjlhCanpnmfUqg1-82" vertex="1">
          <mxGeometry x="30" width="150" height="25" as="geometry">
            <mxRectangle width="150" height="25" as="alternateBounds" />
          </mxGeometry>
        </mxCell>
        <mxCell id="tYSgIUjlhCanpnmfUqg1-103" value="" style="shape=tableRow;horizontal=0;startSize=0;swimlaneHead=0;swimlaneBody=0;fillColor=none;collapsible=0;dropTarget=0;points=[[0,0.5],[1,0.5]];portConstraint=eastwest;top=0;left=0;right=0;bottom=0;" parent="tYSgIUjlhCanpnmfUqg1-78" vertex="1">
          <mxGeometry y="80" width="180" height="25" as="geometry" />
        </mxCell>
        <mxCell id="tYSgIUjlhCanpnmfUqg1-104" value="FK" style="shape=partialRectangle;connectable=0;fillColor=none;top=0;left=0;bottom=0;right=0;editable=1;overflow=hidden;whiteSpace=wrap;html=1;" parent="tYSgIUjlhCanpnmfUqg1-103" vertex="1">
          <mxGeometry width="30" height="25" as="geometry">
            <mxRectangle width="30" height="25" as="alternateBounds" />
          </mxGeometry>
        </mxCell>
        <mxCell id="tYSgIUjlhCanpnmfUqg1-105" value="userId" style="shape=partialRectangle;connectable=0;fillColor=none;top=0;left=0;bottom=0;right=0;align=left;spacingLeft=6;overflow=hidden;whiteSpace=wrap;html=1;" parent="tYSgIUjlhCanpnmfUqg1-103" vertex="1">
          <mxGeometry x="30" width="150" height="25" as="geometry">
            <mxRectangle width="150" height="25" as="alternateBounds" />
          </mxGeometry>
        </mxCell>
        <mxCell id="tYSgIUjlhCanpnmfUqg1-116" value="" style="shape=tableRow;horizontal=0;startSize=0;swimlaneHead=0;swimlaneBody=0;fillColor=none;collapsible=0;dropTarget=0;points=[[0,0.5],[1,0.5]];portConstraint=eastwest;top=0;left=0;right=0;bottom=0;" parent="tYSgIUjlhCanpnmfUqg1-78" vertex="1">
          <mxGeometry y="105" width="180" height="25" as="geometry" />
        </mxCell>
        <mxCell id="tYSgIUjlhCanpnmfUqg1-117" value="" style="shape=partialRectangle;connectable=0;fillColor=none;top=0;left=0;bottom=0;right=0;editable=1;overflow=hidden;whiteSpace=wrap;html=1;" parent="tYSgIUjlhCanpnmfUqg1-116" vertex="1">
          <mxGeometry width="30" height="25" as="geometry">
            <mxRectangle width="30" height="25" as="alternateBounds" />
          </mxGeometry>
        </mxCell>
        <mxCell id="tYSgIUjlhCanpnmfUqg1-118" value="answer" style="shape=partialRectangle;connectable=0;fillColor=none;top=0;left=0;bottom=0;right=0;align=left;spacingLeft=6;overflow=hidden;whiteSpace=wrap;html=1;" parent="tYSgIUjlhCanpnmfUqg1-116" vertex="1">
          <mxGeometry x="30" width="150" height="25" as="geometry">
            <mxRectangle width="150" height="25" as="alternateBounds" />
          </mxGeometry>
        </mxCell>
        <mxCell id="tYSgIUjlhCanpnmfUqg1-112" value="" style="shape=tableRow;horizontal=0;startSize=0;swimlaneHead=0;swimlaneBody=0;fillColor=none;collapsible=0;dropTarget=0;points=[[0,0.5],[1,0.5]];portConstraint=eastwest;top=0;left=0;right=0;bottom=0;" parent="tYSgIUjlhCanpnmfUqg1-78" vertex="1">
          <mxGeometry y="130" width="180" height="25" as="geometry" />
        </mxCell>
        <mxCell id="tYSgIUjlhCanpnmfUqg1-113" value="" style="shape=partialRectangle;connectable=0;fillColor=none;top=0;left=0;bottom=0;right=0;editable=1;overflow=hidden;whiteSpace=wrap;html=1;" parent="tYSgIUjlhCanpnmfUqg1-112" vertex="1">
          <mxGeometry width="30" height="25" as="geometry">
            <mxRectangle width="30" height="25" as="alternateBounds" />
          </mxGeometry>
        </mxCell>
        <mxCell id="tYSgIUjlhCanpnmfUqg1-114" value="voteCount" style="shape=partialRectangle;connectable=0;fillColor=none;top=0;left=0;bottom=0;right=0;align=left;spacingLeft=6;overflow=hidden;whiteSpace=wrap;html=1;" parent="tYSgIUjlhCanpnmfUqg1-112" vertex="1">
          <mxGeometry x="30" width="150" height="25" as="geometry">
            <mxRectangle width="150" height="25" as="alternateBounds" />
          </mxGeometry>
        </mxCell>
        <mxCell id="tYSgIUjlhCanpnmfUqg1-106" value="" style="shape=tableRow;horizontal=0;startSize=0;swimlaneHead=0;swimlaneBody=0;fillColor=none;collapsible=0;dropTarget=0;points=[[0,0.5],[1,0.5]];portConstraint=eastwest;top=0;left=0;right=0;bottom=0;" parent="tYSgIUjlhCanpnmfUqg1-78" vertex="1">
          <mxGeometry y="155" width="180" height="25" as="geometry" />
        </mxCell>
        <mxCell id="tYSgIUjlhCanpnmfUqg1-107" value="&lt;span style=&quot;white-space: pre;&quot;&gt;&#x9;&lt;/span&gt;" style="shape=partialRectangle;connectable=0;fillColor=none;top=0;left=0;bottom=0;right=0;editable=1;overflow=hidden;whiteSpace=wrap;html=1;" parent="tYSgIUjlhCanpnmfUqg1-106" vertex="1">
          <mxGeometry width="30" height="25" as="geometry">
            <mxRectangle width="30" height="25" as="alternateBounds" />
          </mxGeometry>
        </mxCell>
        <mxCell id="tYSgIUjlhCanpnmfUqg1-108" value="creationTime" style="shape=partialRectangle;connectable=0;fillColor=none;top=0;left=0;bottom=0;right=0;align=left;spacingLeft=6;overflow=hidden;whiteSpace=wrap;html=1;" parent="tYSgIUjlhCanpnmfUqg1-106" vertex="1">
          <mxGeometry x="30" width="150" height="25" as="geometry">
            <mxRectangle width="150" height="25" as="alternateBounds" />
          </mxGeometry>
        </mxCell>
        <mxCell id="tYSgIUjlhCanpnmfUqg1-109" value="" style="shape=tableRow;horizontal=0;startSize=0;swimlaneHead=0;swimlaneBody=0;fillColor=none;collapsible=0;dropTarget=0;points=[[0,0.5],[1,0.5]];portConstraint=eastwest;top=0;left=0;right=0;bottom=0;" parent="tYSgIUjlhCanpnmfUqg1-78" vertex="1">
          <mxGeometry y="180" width="180" height="25" as="geometry" />
        </mxCell>
        <mxCell id="tYSgIUjlhCanpnmfUqg1-110" value="" style="shape=partialRectangle;connectable=0;fillColor=none;top=0;left=0;bottom=0;right=0;editable=1;overflow=hidden;whiteSpace=wrap;html=1;" parent="tYSgIUjlhCanpnmfUqg1-109" vertex="1">
          <mxGeometry width="30" height="25" as="geometry">
            <mxRectangle width="30" height="25" as="alternateBounds" />
          </mxGeometry>
        </mxCell>
        <mxCell id="tYSgIUjlhCanpnmfUqg1-111" value="lastModificationTime" style="shape=partialRectangle;connectable=0;fillColor=none;top=0;left=0;bottom=0;right=0;align=left;spacingLeft=6;overflow=hidden;whiteSpace=wrap;html=1;" parent="tYSgIUjlhCanpnmfUqg1-109" vertex="1">
          <mxGeometry x="30" width="150" height="25" as="geometry">
            <mxRectangle width="150" height="25" as="alternateBounds" />
          </mxGeometry>
        </mxCell>
        <mxCell id="tYSgIUjlhCanpnmfUqg1-119" value="" style="edgeStyle=orthogonalEdgeStyle;fontSize=12;html=1;endArrow=ERzeroToMany;startArrow=ERmandOne;rounded=0;exitX=0;exitY=0.5;exitDx=0;exitDy=0;shadow=0;strokeWidth=2;dashed=1;endFill=0;entryX=0;entryY=0.5;entryDx=0;entryDy=0;" parent="1" source="qOU1-5jlqHvTD_oqu2oP-2" target="tYSgIUjlhCanpnmfUqg1-82" edge="1">
          <mxGeometry width="100" height="100" relative="1" as="geometry">
            <mxPoint x="624" y="641" as="sourcePoint" />
            <mxPoint x="624" y="638" as="targetPoint" />
            <Array as="points">
              <mxPoint x="610" y="265" />
              <mxPoint x="610" y="637" />
            </Array>
          </mxGeometry>
        </mxCell>
        <mxCell id="tYSgIUjlhCanpnmfUqg1-121" value="Votes" style="shape=table;startSize=30;container=1;collapsible=1;childLayout=tableLayout;fixedRows=1;rowLines=0;fontStyle=1;align=center;resizeLast=1;html=1;spacing=1;verticalAlign=middle;" parent="1" vertex="1">
          <mxGeometry x="634" y="828" width="180" height="180" as="geometry" />
        </mxCell>
        <mxCell id="tYSgIUjlhCanpnmfUqg1-122" value="" style="shape=tableRow;horizontal=0;startSize=0;swimlaneHead=0;swimlaneBody=0;fillColor=none;collapsible=0;dropTarget=0;points=[[0,0.5],[1,0.5]];portConstraint=eastwest;top=0;left=0;right=0;bottom=1;" parent="tYSgIUjlhCanpnmfUqg1-121" vertex="1">
          <mxGeometry y="30" width="180" height="25" as="geometry" />
        </mxCell>
        <mxCell id="tYSgIUjlhCanpnmfUqg1-123" value="PK" style="shape=partialRectangle;connectable=0;fillColor=none;top=0;left=0;bottom=0;right=0;fontStyle=1;overflow=hidden;whiteSpace=wrap;html=1;" parent="tYSgIUjlhCanpnmfUqg1-122" vertex="1">
          <mxGeometry width="30" height="25" as="geometry">
            <mxRectangle width="30" height="25" as="alternateBounds" />
          </mxGeometry>
        </mxCell>
        <mxCell id="tYSgIUjlhCanpnmfUqg1-124" value="voteId" style="shape=partialRectangle;connectable=0;fillColor=none;top=0;left=0;bottom=0;right=0;align=left;spacingLeft=6;fontStyle=5;overflow=hidden;whiteSpace=wrap;html=1;" parent="tYSgIUjlhCanpnmfUqg1-122" vertex="1">
          <mxGeometry x="30" width="150" height="25" as="geometry">
            <mxRectangle width="150" height="25" as="alternateBounds" />
          </mxGeometry>
        </mxCell>
        <mxCell id="tYSgIUjlhCanpnmfUqg1-125" value="" style="shape=tableRow;horizontal=0;startSize=0;swimlaneHead=0;swimlaneBody=0;fillColor=none;collapsible=0;dropTarget=0;points=[[0,0.5],[1,0.5]];portConstraint=eastwest;top=0;left=0;right=0;bottom=0;" parent="tYSgIUjlhCanpnmfUqg1-121" vertex="1">
          <mxGeometry y="55" width="180" height="25" as="geometry" />
        </mxCell>
        <mxCell id="tYSgIUjlhCanpnmfUqg1-126" value="FK" style="shape=partialRectangle;connectable=0;fillColor=none;top=0;left=0;bottom=0;right=0;editable=1;overflow=hidden;whiteSpace=wrap;html=1;" parent="tYSgIUjlhCanpnmfUqg1-125" vertex="1">
          <mxGeometry width="30" height="25" as="geometry">
            <mxRectangle width="30" height="25" as="alternateBounds" />
          </mxGeometry>
        </mxCell>
        <mxCell id="tYSgIUjlhCanpnmfUqg1-127" value="&lt;span style=&quot;font-weight: 700; text-decoration-line: underline;&quot;&gt;userId&lt;/span&gt;" style="shape=partialRectangle;connectable=0;fillColor=none;top=0;left=0;bottom=0;right=0;align=left;spacingLeft=6;overflow=hidden;whiteSpace=wrap;html=1;" parent="tYSgIUjlhCanpnmfUqg1-125" vertex="1">
          <mxGeometry x="30" width="150" height="25" as="geometry">
            <mxRectangle width="150" height="25" as="alternateBounds" />
          </mxGeometry>
        </mxCell>
        <mxCell id="tYSgIUjlhCanpnmfUqg1-128" value="" style="shape=tableRow;horizontal=0;startSize=0;swimlaneHead=0;swimlaneBody=0;fillColor=none;collapsible=0;dropTarget=0;points=[[0,0.5],[1,0.5]];portConstraint=eastwest;top=0;left=0;right=0;bottom=0;" parent="tYSgIUjlhCanpnmfUqg1-121" vertex="1">
          <mxGeometry y="80" width="180" height="25" as="geometry" />
        </mxCell>
        <mxCell id="tYSgIUjlhCanpnmfUqg1-129" value="FK" style="shape=partialRectangle;connectable=0;fillColor=none;top=0;left=0;bottom=0;right=0;editable=1;overflow=hidden;whiteSpace=wrap;html=1;" parent="tYSgIUjlhCanpnmfUqg1-128" vertex="1">
          <mxGeometry width="30" height="25" as="geometry">
            <mxRectangle width="30" height="25" as="alternateBounds" />
          </mxGeometry>
        </mxCell>
        <mxCell id="tYSgIUjlhCanpnmfUqg1-130" value="questionId" style="shape=partialRectangle;connectable=0;fillColor=none;top=0;left=0;bottom=0;right=0;align=left;spacingLeft=6;overflow=hidden;whiteSpace=wrap;html=1;" parent="tYSgIUjlhCanpnmfUqg1-128" vertex="1">
          <mxGeometry x="30" width="150" height="25" as="geometry">
            <mxRectangle width="150" height="25" as="alternateBounds" />
          </mxGeometry>
        </mxCell>
        <mxCell id="tYSgIUjlhCanpnmfUqg1-131" value="" style="shape=tableRow;horizontal=0;startSize=0;swimlaneHead=0;swimlaneBody=0;fillColor=none;collapsible=0;dropTarget=0;points=[[0,0.5],[1,0.5]];portConstraint=eastwest;top=0;left=0;right=0;bottom=0;" parent="tYSgIUjlhCanpnmfUqg1-121" vertex="1">
          <mxGeometry y="105" width="180" height="25" as="geometry" />
        </mxCell>
        <mxCell id="tYSgIUjlhCanpnmfUqg1-132" value="FK" style="shape=partialRectangle;connectable=0;fillColor=none;top=0;left=0;bottom=0;right=0;editable=1;overflow=hidden;whiteSpace=wrap;html=1;" parent="tYSgIUjlhCanpnmfUqg1-131" vertex="1">
          <mxGeometry width="30" height="25" as="geometry">
            <mxRectangle width="30" height="25" as="alternateBounds" />
          </mxGeometry>
        </mxCell>
        <mxCell id="tYSgIUjlhCanpnmfUqg1-133" value="answerId" style="shape=partialRectangle;connectable=0;fillColor=none;top=0;left=0;bottom=0;right=0;align=left;spacingLeft=6;overflow=hidden;whiteSpace=wrap;html=1;" parent="tYSgIUjlhCanpnmfUqg1-131" vertex="1">
          <mxGeometry x="30" width="150" height="25" as="geometry">
            <mxRectangle width="150" height="25" as="alternateBounds" />
          </mxGeometry>
        </mxCell>
        <mxCell id="tYSgIUjlhCanpnmfUqg1-137" value="" style="shape=tableRow;horizontal=0;startSize=0;swimlaneHead=0;swimlaneBody=0;fillColor=none;collapsible=0;dropTarget=0;points=[[0,0.5],[1,0.5]];portConstraint=eastwest;top=0;left=0;right=0;bottom=0;" parent="tYSgIUjlhCanpnmfUqg1-121" vertex="1">
          <mxGeometry y="130" width="180" height="25" as="geometry" />
        </mxCell>
        <mxCell id="tYSgIUjlhCanpnmfUqg1-138" value="&lt;span style=&quot;white-space: pre;&quot;&gt;&#x9;&lt;/span&gt;" style="shape=partialRectangle;connectable=0;fillColor=none;top=0;left=0;bottom=0;right=0;editable=1;overflow=hidden;whiteSpace=wrap;html=1;" parent="tYSgIUjlhCanpnmfUqg1-137" vertex="1">
          <mxGeometry width="30" height="25" as="geometry">
            <mxRectangle width="30" height="25" as="alternateBounds" />
          </mxGeometry>
        </mxCell>
        <mxCell id="tYSgIUjlhCanpnmfUqg1-139" value="result" style="shape=partialRectangle;connectable=0;fillColor=none;top=0;left=0;bottom=0;right=0;align=left;spacingLeft=6;overflow=hidden;whiteSpace=wrap;html=1;" parent="tYSgIUjlhCanpnmfUqg1-137" vertex="1">
          <mxGeometry x="30" width="150" height="25" as="geometry">
            <mxRectangle width="150" height="25" as="alternateBounds" />
          </mxGeometry>
        </mxCell>
        <mxCell id="Xz8H3Bzz6eP4JOFIejTX-2" value="" style="shape=tableRow;horizontal=0;startSize=0;swimlaneHead=0;swimlaneBody=0;fillColor=none;collapsible=0;dropTarget=0;points=[[0,0.5],[1,0.5]];portConstraint=eastwest;top=0;left=0;right=0;bottom=0;" vertex="1" parent="tYSgIUjlhCanpnmfUqg1-121">
          <mxGeometry y="155" width="180" height="25" as="geometry" />
        </mxCell>
        <mxCell id="Xz8H3Bzz6eP4JOFIejTX-3" value="&lt;span style=&quot;white-space: pre;&quot;&gt;&#x9;&lt;/span&gt;" style="shape=partialRectangle;connectable=0;fillColor=none;top=0;left=0;bottom=0;right=0;editable=1;overflow=hidden;whiteSpace=wrap;html=1;" vertex="1" parent="Xz8H3Bzz6eP4JOFIejTX-2">
          <mxGeometry width="30" height="25" as="geometry">
            <mxRectangle width="30" height="25" as="alternateBounds" />
          </mxGeometry>
        </mxCell>
        <mxCell id="Xz8H3Bzz6eP4JOFIejTX-4" value="creationTime" style="shape=partialRectangle;connectable=0;fillColor=none;top=0;left=0;bottom=0;right=0;align=left;spacingLeft=6;overflow=hidden;whiteSpace=wrap;html=1;" vertex="1" parent="Xz8H3Bzz6eP4JOFIejTX-2">
          <mxGeometry x="30" width="150" height="25" as="geometry">
            <mxRectangle width="150" height="25" as="alternateBounds" />
          </mxGeometry>
        </mxCell>
        <mxCell id="tYSgIUjlhCanpnmfUqg1-143" value="" style="edgeStyle=orthogonalEdgeStyle;fontSize=12;html=1;endArrow=ERzeroToMany;startArrow=ERmandOne;rounded=0;shadow=0;strokeWidth=2;dashed=1;entryX=0;entryY=0.5;entryDx=0;entryDy=0;endFill=0;" parent="1" source="yLUDJvTatkyBeT4OISrp-2" target="tYSgIUjlhCanpnmfUqg1-125" edge="1">
          <mxGeometry width="100" height="100" relative="1" as="geometry">
            <mxPoint x="724.5" y="696" as="sourcePoint" />
            <mxPoint x="724" y="1224" as="targetPoint" />
            <Array as="points">
              <mxPoint x="560" y="403" />
              <mxPoint x="560" y="895" />
            </Array>
          </mxGeometry>
        </mxCell>
        <mxCell id="tYSgIUjlhCanpnmfUqg1-144" style="edgeStyle=orthogonalEdgeStyle;rounded=0;orthogonalLoop=1;jettySize=auto;html=1;endArrow=ERmandOne;endFill=0;startArrow=ERzeroToMany;startFill=0;strokeWidth=2;dashed=1;exitX=1;exitY=0.5;exitDx=0;exitDy=0;" parent="1" source="tYSgIUjlhCanpnmfUqg1-128" target="qOU1-5jlqHvTD_oqu2oP-2" edge="1">
          <mxGeometry relative="1" as="geometry">
            <mxPoint x="1184" y="621" as="sourcePoint" />
            <mxPoint x="1294" y="976" as="targetPoint" />
            <Array as="points">
              <mxPoint x="850" y="921" />
              <mxPoint x="850" y="265" />
            </Array>
          </mxGeometry>
        </mxCell>
        <mxCell id="tYSgIUjlhCanpnmfUqg1-145" style="edgeStyle=orthogonalEdgeStyle;rounded=0;orthogonalLoop=1;jettySize=auto;html=1;endArrow=ERmandOne;endFill=0;startArrow=ERzeroToMany;startFill=0;strokeWidth=2;dashed=1;exitX=1;exitY=0.5;exitDx=0;exitDy=0;" parent="1" source="tYSgIUjlhCanpnmfUqg1-131" target="tYSgIUjlhCanpnmfUqg1-79" edge="1">
          <mxGeometry relative="1" as="geometry">
            <mxPoint x="1194" y="706" as="sourcePoint" />
            <mxPoint x="1304" y="1061" as="targetPoint" />
            <Array as="points">
              <mxPoint x="870" y="945" />
              <mxPoint x="870" y="613" />
            </Array>
          </mxGeometry>
        </mxCell>
        <mxCell id="tYSgIUjlhCanpnmfUqg1-147" style="rounded=0;orthogonalLoop=1;jettySize=auto;html=1;endArrow=ERmandOne;endFill=0;startArrow=ERzeroToMany;startFill=0;strokeWidth=2;dashed=1;edgeStyle=elbowEdgeStyle;" parent="1" source="tYSgIUjlhCanpnmfUqg1-103" target="yLUDJvTatkyBeT4OISrp-2" edge="1">
          <mxGeometry relative="1" as="geometry">
            <mxPoint x="1254" y="1166" as="sourcePoint" />
            <mxPoint x="1014" y="886" as="targetPoint" />
            <Array as="points">
              <mxPoint x="580" y="540" />
              <mxPoint x="590" y="670" />
            </Array>
          </mxGeometry>
        </mxCell>
        <mxCell id="tYSgIUjlhCanpnmfUqg1-199" value="User_T&lt;span style=&quot;font-weight: 400; text-align: left; text-wrap: wrap;&quot;&gt;echnologies&lt;/span&gt;" style="shape=table;startSize=30;container=1;collapsible=1;childLayout=tableLayout;fixedRows=1;rowLines=0;fontStyle=1;align=center;resizeLast=1;html=1;spacing=1;verticalAlign=middle;" parent="1" vertex="1">
          <mxGeometry x="75" y="220" width="176" height="81" as="geometry" />
        </mxCell>
        <mxCell id="tYSgIUjlhCanpnmfUqg1-200" value="" style="shape=tableRow;horizontal=0;startSize=0;swimlaneHead=0;swimlaneBody=0;fillColor=none;collapsible=0;dropTarget=0;points=[[0,0.5],[1,0.5]];portConstraint=eastwest;top=0;left=0;right=0;bottom=1;" parent="tYSgIUjlhCanpnmfUqg1-199" vertex="1">
          <mxGeometry y="30" width="176" height="25" as="geometry" />
        </mxCell>
        <mxCell id="tYSgIUjlhCanpnmfUqg1-201" value="PK FK" style="shape=partialRectangle;connectable=0;fillColor=none;top=0;left=0;bottom=0;right=0;fontStyle=1;overflow=hidden;whiteSpace=wrap;html=1;" parent="tYSgIUjlhCanpnmfUqg1-200" vertex="1">
          <mxGeometry width="50" height="25" as="geometry">
            <mxRectangle width="50" height="25" as="alternateBounds" />
          </mxGeometry>
        </mxCell>
        <mxCell id="tYSgIUjlhCanpnmfUqg1-202" value="userId" style="shape=partialRectangle;connectable=0;fillColor=none;top=0;left=0;bottom=0;right=0;align=left;spacingLeft=6;fontStyle=5;overflow=hidden;whiteSpace=wrap;html=1;" parent="tYSgIUjlhCanpnmfUqg1-200" vertex="1">
          <mxGeometry x="50" width="126" height="25" as="geometry">
            <mxRectangle width="126" height="25" as="alternateBounds" />
          </mxGeometry>
        </mxCell>
        <mxCell id="tYSgIUjlhCanpnmfUqg1-203" value="" style="shape=tableRow;horizontal=0;startSize=0;swimlaneHead=0;swimlaneBody=0;fillColor=none;collapsible=0;dropTarget=0;points=[[0,0.5],[1,0.5]];portConstraint=eastwest;top=0;left=0;right=0;bottom=0;" parent="tYSgIUjlhCanpnmfUqg1-199" vertex="1">
          <mxGeometry y="55" width="176" height="25" as="geometry" />
        </mxCell>
        <mxCell id="tYSgIUjlhCanpnmfUqg1-204" value="PK FK" style="shape=partialRectangle;connectable=0;fillColor=none;top=0;left=0;bottom=0;right=0;editable=1;overflow=hidden;whiteSpace=wrap;html=1;" parent="tYSgIUjlhCanpnmfUqg1-203" vertex="1">
          <mxGeometry width="50" height="25" as="geometry">
            <mxRectangle width="50" height="25" as="alternateBounds" />
          </mxGeometry>
        </mxCell>
        <mxCell id="tYSgIUjlhCanpnmfUqg1-205" value="technologyId" style="shape=partialRectangle;connectable=0;fillColor=none;top=0;left=0;bottom=0;right=0;align=left;spacingLeft=6;overflow=hidden;whiteSpace=wrap;html=1;" parent="tYSgIUjlhCanpnmfUqg1-203" vertex="1">
          <mxGeometry x="50" width="126" height="25" as="geometry">
            <mxRectangle width="126" height="25" as="alternateBounds" />
          </mxGeometry>
        </mxCell>
        <mxCell id="tYSgIUjlhCanpnmfUqg1-206" style="rounded=0;orthogonalLoop=1;jettySize=auto;html=1;endArrow=ERoneToMany;endFill=0;startArrow=ERmandOne;startFill=0;strokeWidth=2;exitX=0;exitY=0.5;exitDx=0;exitDy=0;edgeStyle=orthogonalEdgeStyle;" parent="1" source="yLUDJvTatkyBeT4OISrp-2" target="tYSgIUjlhCanpnmfUqg1-200" edge="1">
          <mxGeometry relative="1" as="geometry">
            <mxPoint x="804" y="236" as="sourcePoint" />
            <mxPoint x="980" y="236" as="targetPoint" />
          </mxGeometry>
        </mxCell>
        <mxCell id="tYSgIUjlhCanpnmfUqg1-207" value="T&lt;span style=&quot;text-wrap: wrap; font-weight: 400; text-align: left;&quot;&gt;echnologies&lt;/span&gt;" style="shape=table;startSize=30;container=1;collapsible=1;childLayout=tableLayout;fixedRows=1;rowLines=0;fontStyle=1;align=center;resizeLast=1;html=1;spacing=1;verticalAlign=middle;" parent="1" vertex="1">
          <mxGeometry x="73" y="672" width="180" height="80" as="geometry" />
        </mxCell>
        <mxCell id="tYSgIUjlhCanpnmfUqg1-208" value="" style="shape=tableRow;horizontal=0;startSize=0;swimlaneHead=0;swimlaneBody=0;fillColor=none;collapsible=0;dropTarget=0;points=[[0,0.5],[1,0.5]];portConstraint=eastwest;top=0;left=0;right=0;bottom=1;" parent="tYSgIUjlhCanpnmfUqg1-207" vertex="1">
          <mxGeometry y="30" width="180" height="25" as="geometry" />
        </mxCell>
        <mxCell id="tYSgIUjlhCanpnmfUqg1-209" value="PK" style="shape=partialRectangle;connectable=0;fillColor=none;top=0;left=0;bottom=0;right=0;fontStyle=1;overflow=hidden;whiteSpace=wrap;html=1;" parent="tYSgIUjlhCanpnmfUqg1-208" vertex="1">
          <mxGeometry width="30" height="25" as="geometry">
            <mxRectangle width="30" height="25" as="alternateBounds" />
          </mxGeometry>
        </mxCell>
        <mxCell id="tYSgIUjlhCanpnmfUqg1-210" value="&lt;span style=&quot;font-weight: 400;&quot;&gt;technologyId&lt;/span&gt;" style="shape=partialRectangle;connectable=0;fillColor=none;top=0;left=0;bottom=0;right=0;align=left;spacingLeft=6;fontStyle=5;overflow=hidden;whiteSpace=wrap;html=1;" parent="tYSgIUjlhCanpnmfUqg1-208" vertex="1">
          <mxGeometry x="30" width="150" height="25" as="geometry">
            <mxRectangle width="150" height="25" as="alternateBounds" />
          </mxGeometry>
        </mxCell>
        <mxCell id="tYSgIUjlhCanpnmfUqg1-211" value="" style="shape=tableRow;horizontal=0;startSize=0;swimlaneHead=0;swimlaneBody=0;fillColor=none;collapsible=0;dropTarget=0;points=[[0,0.5],[1,0.5]];portConstraint=eastwest;top=0;left=0;right=0;bottom=0;" parent="tYSgIUjlhCanpnmfUqg1-207" vertex="1">
          <mxGeometry y="55" width="180" height="25" as="geometry" />
        </mxCell>
        <mxCell id="tYSgIUjlhCanpnmfUqg1-212" value="" style="shape=partialRectangle;connectable=0;fillColor=none;top=0;left=0;bottom=0;right=0;editable=1;overflow=hidden;whiteSpace=wrap;html=1;" parent="tYSgIUjlhCanpnmfUqg1-211" vertex="1">
          <mxGeometry width="30" height="25" as="geometry">
            <mxRectangle width="30" height="25" as="alternateBounds" />
          </mxGeometry>
        </mxCell>
        <mxCell id="tYSgIUjlhCanpnmfUqg1-213" value="technology" style="shape=partialRectangle;connectable=0;fillColor=none;top=0;left=0;bottom=0;right=0;align=left;spacingLeft=6;overflow=hidden;whiteSpace=wrap;html=1;" parent="tYSgIUjlhCanpnmfUqg1-211" vertex="1">
          <mxGeometry x="30" width="150" height="25" as="geometry">
            <mxRectangle width="150" height="25" as="alternateBounds" />
          </mxGeometry>
        </mxCell>
        <mxCell id="tYSgIUjlhCanpnmfUqg1-218" value="" style="edgeStyle=orthogonalEdgeStyle;fontSize=12;html=1;endArrow=ERzeroToMany;startArrow=ERmandOne;rounded=0;entryX=0;entryY=0.5;entryDx=0;entryDy=0;strokeWidth=2;endFill=0;exitX=0;exitY=0.5;exitDx=0;exitDy=0;" parent="1" source="tYSgIUjlhCanpnmfUqg1-208" target="tYSgIUjlhCanpnmfUqg1-203" edge="1">
          <mxGeometry width="100" height="100" relative="1" as="geometry">
            <mxPoint x="169" y="550" as="sourcePoint" />
            <mxPoint x="110" y="606" as="targetPoint" />
            <Array as="points">
              <mxPoint x="30" y="713" />
              <mxPoint x="30" y="287" />
            </Array>
          </mxGeometry>
        </mxCell>
        <mxCell id="tYSgIUjlhCanpnmfUqg1-271" style="rounded=0;orthogonalLoop=1;jettySize=auto;html=1;endArrow=ERzeroToMany;endFill=0;startArrow=ERmandOne;startFill=0;strokeWidth=2;edgeStyle=orthogonalEdgeStyle;" parent="1" source="qOU1-5jlqHvTD_oqu2oP-152" target="tYSgIUjlhCanpnmfUqg1-5" edge="1">
          <mxGeometry relative="1" as="geometry">
            <mxPoint x="1232" y="330" as="sourcePoint" />
            <mxPoint x="1190" y="390" as="targetPoint" />
          </mxGeometry>
        </mxCell>
        <mxCell id="tYSgIUjlhCanpnmfUqg1-273" value="User_Preferences" style="shape=table;startSize=30;container=1;collapsible=1;childLayout=tableLayout;fixedRows=1;rowLines=0;fontStyle=1;align=center;resizeLast=1;html=1;spacing=1;verticalAlign=middle;" parent="1" vertex="1">
          <mxGeometry x="71" y="322" width="180" height="133" as="geometry" />
        </mxCell>
        <mxCell id="tYSgIUjlhCanpnmfUqg1-274" value="" style="shape=tableRow;horizontal=0;startSize=0;swimlaneHead=0;swimlaneBody=0;fillColor=none;collapsible=0;dropTarget=0;points=[[0,0.5],[1,0.5]];portConstraint=eastwest;top=0;left=0;right=0;bottom=1;" parent="tYSgIUjlhCanpnmfUqg1-273" vertex="1">
          <mxGeometry y="30" width="180" height="25" as="geometry" />
        </mxCell>
        <mxCell id="tYSgIUjlhCanpnmfUqg1-275" value="PK" style="shape=partialRectangle;connectable=0;fillColor=none;top=0;left=0;bottom=0;right=0;fontStyle=1;overflow=hidden;whiteSpace=wrap;html=1;" parent="tYSgIUjlhCanpnmfUqg1-274" vertex="1">
          <mxGeometry width="30" height="25" as="geometry">
            <mxRectangle width="30" height="25" as="alternateBounds" />
          </mxGeometry>
        </mxCell>
        <mxCell id="tYSgIUjlhCanpnmfUqg1-276" value="&lt;span style=&quot;font-weight: 400;&quot;&gt;preferenceId&lt;/span&gt;" style="shape=partialRectangle;connectable=0;fillColor=none;top=0;left=0;bottom=0;right=0;align=left;spacingLeft=6;fontStyle=5;overflow=hidden;whiteSpace=wrap;html=1;" parent="tYSgIUjlhCanpnmfUqg1-274" vertex="1">
          <mxGeometry x="30" width="150" height="25" as="geometry">
            <mxRectangle width="150" height="25" as="alternateBounds" />
          </mxGeometry>
        </mxCell>
        <mxCell id="tYSgIUjlhCanpnmfUqg1-277" value="" style="shape=tableRow;horizontal=0;startSize=0;swimlaneHead=0;swimlaneBody=0;fillColor=none;collapsible=0;dropTarget=0;points=[[0,0.5],[1,0.5]];portConstraint=eastwest;top=0;left=0;right=0;bottom=0;" parent="tYSgIUjlhCanpnmfUqg1-273" vertex="1">
          <mxGeometry y="55" width="180" height="25" as="geometry" />
        </mxCell>
        <mxCell id="tYSgIUjlhCanpnmfUqg1-278" value="FK" style="shape=partialRectangle;connectable=0;fillColor=none;top=0;left=0;bottom=0;right=0;editable=1;overflow=hidden;whiteSpace=wrap;html=1;" parent="tYSgIUjlhCanpnmfUqg1-277" vertex="1">
          <mxGeometry width="30" height="25" as="geometry">
            <mxRectangle width="30" height="25" as="alternateBounds" />
          </mxGeometry>
        </mxCell>
        <mxCell id="tYSgIUjlhCanpnmfUqg1-279" value="userId" style="shape=partialRectangle;connectable=0;fillColor=none;top=0;left=0;bottom=0;right=0;align=left;spacingLeft=6;overflow=hidden;whiteSpace=wrap;html=1;" parent="tYSgIUjlhCanpnmfUqg1-277" vertex="1">
          <mxGeometry x="30" width="150" height="25" as="geometry">
            <mxRectangle width="150" height="25" as="alternateBounds" />
          </mxGeometry>
        </mxCell>
        <mxCell id="tYSgIUjlhCanpnmfUqg1-287" value="" style="shape=tableRow;horizontal=0;startSize=0;swimlaneHead=0;swimlaneBody=0;fillColor=none;collapsible=0;dropTarget=0;points=[[0,0.5],[1,0.5]];portConstraint=eastwest;top=0;left=0;right=0;bottom=0;" parent="tYSgIUjlhCanpnmfUqg1-273" vertex="1">
          <mxGeometry y="80" width="180" height="25" as="geometry" />
        </mxCell>
        <mxCell id="tYSgIUjlhCanpnmfUqg1-288" value="" style="shape=partialRectangle;connectable=0;fillColor=none;top=0;left=0;bottom=0;right=0;editable=1;overflow=hidden;whiteSpace=wrap;html=1;" parent="tYSgIUjlhCanpnmfUqg1-287" vertex="1">
          <mxGeometry width="30" height="25" as="geometry">
            <mxRectangle width="30" height="25" as="alternateBounds" />
          </mxGeometry>
        </mxCell>
        <mxCell id="tYSgIUjlhCanpnmfUqg1-289" value="preferenceType" style="shape=partialRectangle;connectable=0;fillColor=none;top=0;left=0;bottom=0;right=0;align=left;spacingLeft=6;overflow=hidden;whiteSpace=wrap;html=1;" parent="tYSgIUjlhCanpnmfUqg1-287" vertex="1">
          <mxGeometry x="30" width="150" height="25" as="geometry">
            <mxRectangle width="150" height="25" as="alternateBounds" />
          </mxGeometry>
        </mxCell>
        <mxCell id="tYSgIUjlhCanpnmfUqg1-291" value="" style="shape=tableRow;horizontal=0;startSize=0;swimlaneHead=0;swimlaneBody=0;fillColor=none;collapsible=0;dropTarget=0;points=[[0,0.5],[1,0.5]];portConstraint=eastwest;top=0;left=0;right=0;bottom=0;" parent="tYSgIUjlhCanpnmfUqg1-273" vertex="1">
          <mxGeometry y="105" width="180" height="25" as="geometry" />
        </mxCell>
        <mxCell id="tYSgIUjlhCanpnmfUqg1-292" value="" style="shape=partialRectangle;connectable=0;fillColor=none;top=0;left=0;bottom=0;right=0;editable=1;overflow=hidden;whiteSpace=wrap;html=1;" parent="tYSgIUjlhCanpnmfUqg1-291" vertex="1">
          <mxGeometry width="30" height="25" as="geometry">
            <mxRectangle width="30" height="25" as="alternateBounds" />
          </mxGeometry>
        </mxCell>
        <mxCell id="tYSgIUjlhCanpnmfUqg1-293" value="preferenceValue" style="shape=partialRectangle;connectable=0;fillColor=none;top=0;left=0;bottom=0;right=0;align=left;spacingLeft=6;overflow=hidden;whiteSpace=wrap;html=1;" parent="tYSgIUjlhCanpnmfUqg1-291" vertex="1">
          <mxGeometry x="30" width="150" height="25" as="geometry">
            <mxRectangle width="150" height="25" as="alternateBounds" />
          </mxGeometry>
        </mxCell>
        <mxCell id="tYSgIUjlhCanpnmfUqg1-290" value="" style="edgeStyle=orthogonalEdgeStyle;fontSize=12;html=1;endArrow=ERoneToMany;startArrow=ERmandOne;rounded=0;strokeWidth=2;endFill=0;dashed=1;" parent="1" source="yLUDJvTatkyBeT4OISrp-2" target="tYSgIUjlhCanpnmfUqg1-277" edge="1">
          <mxGeometry width="100" height="100" relative="1" as="geometry">
            <mxPoint x="360.03999999999996" y="508" as="sourcePoint" />
            <mxPoint x="360.03999999999996" y="421" as="targetPoint" />
          </mxGeometry>
        </mxCell>
        <mxCell id="tYSgIUjlhCanpnmfUqg1-313" value="" style="edgeStyle=orthogonalEdgeStyle;fontSize=12;html=1;endArrow=ERzeroToMany;startArrow=ERmandOne;rounded=0;strokeWidth=2;endFill=0;dashed=1;exitX=0;exitY=0.5;exitDx=0;exitDy=0;" parent="1" source="yLUDJvTatkyBeT4OISrp-2" target="tYSgIUjlhCanpnmfUqg1-320" edge="1">
          <mxGeometry width="100" height="100" relative="1" as="geometry">
            <mxPoint x="405" y="638.5" as="sourcePoint" />
            <mxPoint x="310" y="757" as="targetPoint" />
            <Array as="points">
              <mxPoint x="290" y="403" />
              <mxPoint x="290" y="541" />
            </Array>
          </mxGeometry>
        </mxCell>
        <mxCell id="tYSgIUjlhCanpnmfUqg1-316" value="User_Notifications" style="shape=table;startSize=30;container=1;collapsible=1;childLayout=tableLayout;fixedRows=1;rowLines=0;fontStyle=1;align=center;resizeLast=1;html=1;spacing=1;verticalAlign=middle;" parent="1" vertex="1">
          <mxGeometry x="71" y="474" width="180" height="180" as="geometry" />
        </mxCell>
        <mxCell id="tYSgIUjlhCanpnmfUqg1-317" value="" style="shape=tableRow;horizontal=0;startSize=0;swimlaneHead=0;swimlaneBody=0;fillColor=none;collapsible=0;dropTarget=0;points=[[0,0.5],[1,0.5]];portConstraint=eastwest;top=0;left=0;right=0;bottom=1;" parent="tYSgIUjlhCanpnmfUqg1-316" vertex="1">
          <mxGeometry y="30" width="180" height="25" as="geometry" />
        </mxCell>
        <mxCell id="tYSgIUjlhCanpnmfUqg1-318" value="PK" style="shape=partialRectangle;connectable=0;fillColor=none;top=0;left=0;bottom=0;right=0;fontStyle=1;overflow=hidden;whiteSpace=wrap;html=1;" parent="tYSgIUjlhCanpnmfUqg1-317" vertex="1">
          <mxGeometry width="30" height="25" as="geometry">
            <mxRectangle width="30" height="25" as="alternateBounds" />
          </mxGeometry>
        </mxCell>
        <mxCell id="tYSgIUjlhCanpnmfUqg1-319" value="&lt;span style=&quot;font-weight: 400;&quot;&gt;notificationId&lt;/span&gt;" style="shape=partialRectangle;connectable=0;fillColor=none;top=0;left=0;bottom=0;right=0;align=left;spacingLeft=6;fontStyle=5;overflow=hidden;whiteSpace=wrap;html=1;" parent="tYSgIUjlhCanpnmfUqg1-317" vertex="1">
          <mxGeometry x="30" width="150" height="25" as="geometry">
            <mxRectangle width="150" height="25" as="alternateBounds" />
          </mxGeometry>
        </mxCell>
        <mxCell id="tYSgIUjlhCanpnmfUqg1-320" value="" style="shape=tableRow;horizontal=0;startSize=0;swimlaneHead=0;swimlaneBody=0;fillColor=none;collapsible=0;dropTarget=0;points=[[0,0.5],[1,0.5]];portConstraint=eastwest;top=0;left=0;right=0;bottom=0;" parent="tYSgIUjlhCanpnmfUqg1-316" vertex="1">
          <mxGeometry y="55" width="180" height="25" as="geometry" />
        </mxCell>
        <mxCell id="tYSgIUjlhCanpnmfUqg1-321" value="FK" style="shape=partialRectangle;connectable=0;fillColor=none;top=0;left=0;bottom=0;right=0;editable=1;overflow=hidden;whiteSpace=wrap;html=1;" parent="tYSgIUjlhCanpnmfUqg1-320" vertex="1">
          <mxGeometry width="30" height="25" as="geometry">
            <mxRectangle width="30" height="25" as="alternateBounds" />
          </mxGeometry>
        </mxCell>
        <mxCell id="tYSgIUjlhCanpnmfUqg1-322" value="userId" style="shape=partialRectangle;connectable=0;fillColor=none;top=0;left=0;bottom=0;right=0;align=left;spacingLeft=6;overflow=hidden;whiteSpace=wrap;html=1;" parent="tYSgIUjlhCanpnmfUqg1-320" vertex="1">
          <mxGeometry x="30" width="150" height="25" as="geometry">
            <mxRectangle width="150" height="25" as="alternateBounds" />
          </mxGeometry>
        </mxCell>
        <mxCell id="tYSgIUjlhCanpnmfUqg1-323" value="" style="shape=tableRow;horizontal=0;startSize=0;swimlaneHead=0;swimlaneBody=0;fillColor=none;collapsible=0;dropTarget=0;points=[[0,0.5],[1,0.5]];portConstraint=eastwest;top=0;left=0;right=0;bottom=0;" parent="tYSgIUjlhCanpnmfUqg1-316" vertex="1">
          <mxGeometry y="80" width="180" height="25" as="geometry" />
        </mxCell>
        <mxCell id="tYSgIUjlhCanpnmfUqg1-324" value="" style="shape=partialRectangle;connectable=0;fillColor=none;top=0;left=0;bottom=0;right=0;editable=1;overflow=hidden;whiteSpace=wrap;html=1;" parent="tYSgIUjlhCanpnmfUqg1-323" vertex="1">
          <mxGeometry width="30" height="25" as="geometry">
            <mxRectangle width="30" height="25" as="alternateBounds" />
          </mxGeometry>
        </mxCell>
        <mxCell id="tYSgIUjlhCanpnmfUqg1-325" value="notificationType" style="shape=partialRectangle;connectable=0;fillColor=none;top=0;left=0;bottom=0;right=0;align=left;spacingLeft=6;overflow=hidden;whiteSpace=wrap;html=1;" parent="tYSgIUjlhCanpnmfUqg1-323" vertex="1">
          <mxGeometry x="30" width="150" height="25" as="geometry">
            <mxRectangle width="150" height="25" as="alternateBounds" />
          </mxGeometry>
        </mxCell>
        <mxCell id="tYSgIUjlhCanpnmfUqg1-326" value="" style="shape=tableRow;horizontal=0;startSize=0;swimlaneHead=0;swimlaneBody=0;fillColor=none;collapsible=0;dropTarget=0;points=[[0,0.5],[1,0.5]];portConstraint=eastwest;top=0;left=0;right=0;bottom=0;" parent="tYSgIUjlhCanpnmfUqg1-316" vertex="1">
          <mxGeometry y="105" width="180" height="25" as="geometry" />
        </mxCell>
        <mxCell id="tYSgIUjlhCanpnmfUqg1-327" value="" style="shape=partialRectangle;connectable=0;fillColor=none;top=0;left=0;bottom=0;right=0;editable=1;overflow=hidden;whiteSpace=wrap;html=1;" parent="tYSgIUjlhCanpnmfUqg1-326" vertex="1">
          <mxGeometry width="30" height="25" as="geometry">
            <mxRectangle width="30" height="25" as="alternateBounds" />
          </mxGeometry>
        </mxCell>
        <mxCell id="tYSgIUjlhCanpnmfUqg1-328" value="notification" style="shape=partialRectangle;connectable=0;fillColor=none;top=0;left=0;bottom=0;right=0;align=left;spacingLeft=6;overflow=hidden;whiteSpace=wrap;html=1;" parent="tYSgIUjlhCanpnmfUqg1-326" vertex="1">
          <mxGeometry x="30" width="150" height="25" as="geometry">
            <mxRectangle width="150" height="25" as="alternateBounds" />
          </mxGeometry>
        </mxCell>
        <mxCell id="tYSgIUjlhCanpnmfUqg1-329" value="" style="shape=tableRow;horizontal=0;startSize=0;swimlaneHead=0;swimlaneBody=0;fillColor=none;collapsible=0;dropTarget=0;points=[[0,0.5],[1,0.5]];portConstraint=eastwest;top=0;left=0;right=0;bottom=0;" parent="tYSgIUjlhCanpnmfUqg1-316" vertex="1">
          <mxGeometry y="130" width="180" height="25" as="geometry" />
        </mxCell>
        <mxCell id="tYSgIUjlhCanpnmfUqg1-330" value="" style="shape=partialRectangle;connectable=0;fillColor=none;top=0;left=0;bottom=0;right=0;editable=1;overflow=hidden;whiteSpace=wrap;html=1;" parent="tYSgIUjlhCanpnmfUqg1-329" vertex="1">
          <mxGeometry width="30" height="25" as="geometry">
            <mxRectangle width="30" height="25" as="alternateBounds" />
          </mxGeometry>
        </mxCell>
        <mxCell id="tYSgIUjlhCanpnmfUqg1-331" value="status" style="shape=partialRectangle;connectable=0;fillColor=none;top=0;left=0;bottom=0;right=0;align=left;spacingLeft=6;overflow=hidden;whiteSpace=wrap;html=1;" parent="tYSgIUjlhCanpnmfUqg1-329" vertex="1">
          <mxGeometry x="30" width="150" height="25" as="geometry">
            <mxRectangle width="150" height="25" as="alternateBounds" />
          </mxGeometry>
        </mxCell>
        <mxCell id="tYSgIUjlhCanpnmfUqg1-332" value="" style="shape=tableRow;horizontal=0;startSize=0;swimlaneHead=0;swimlaneBody=0;fillColor=none;collapsible=0;dropTarget=0;points=[[0,0.5],[1,0.5]];portConstraint=eastwest;top=0;left=0;right=0;bottom=0;" parent="tYSgIUjlhCanpnmfUqg1-316" vertex="1">
          <mxGeometry y="155" width="180" height="25" as="geometry" />
        </mxCell>
        <mxCell id="tYSgIUjlhCanpnmfUqg1-333" value="" style="shape=partialRectangle;connectable=0;fillColor=none;top=0;left=0;bottom=0;right=0;editable=1;overflow=hidden;whiteSpace=wrap;html=1;" parent="tYSgIUjlhCanpnmfUqg1-332" vertex="1">
          <mxGeometry width="30" height="25" as="geometry">
            <mxRectangle width="30" height="25" as="alternateBounds" />
          </mxGeometry>
        </mxCell>
        <mxCell id="tYSgIUjlhCanpnmfUqg1-334" value="creationTime" style="shape=partialRectangle;connectable=0;fillColor=none;top=0;left=0;bottom=0;right=0;align=left;spacingLeft=6;overflow=hidden;whiteSpace=wrap;html=1;" parent="tYSgIUjlhCanpnmfUqg1-332" vertex="1">
          <mxGeometry x="30" width="150" height="25" as="geometry">
            <mxRectangle width="150" height="25" as="alternateBounds" />
          </mxGeometry>
        </mxCell>
        <mxCell id="tYSgIUjlhCanpnmfUqg1-336" style="edgeStyle=orthogonalEdgeStyle;rounded=0;orthogonalLoop=1;jettySize=auto;html=1;entryX=0;entryY=0.5;entryDx=0;entryDy=0;endArrow=ERzeroToMany;endFill=0;startArrow=ERmandOne;startFill=0;strokeWidth=2;exitX=0;exitY=0.5;exitDx=0;exitDy=0;" parent="1" source="yLUDJvTatkyBeT4OISrp-2" target="tYSgIUjlhCanpnmfUqg1-69" edge="1">
          <mxGeometry relative="1" as="geometry">
            <mxPoint x="1204" y="255" as="sourcePoint" />
            <mxPoint x="1010.0000000000002" y="20" as="targetPoint" />
            <Array as="points">
              <mxPoint x="310" y="403" />
              <mxPoint x="310" y="287" />
            </Array>
          </mxGeometry>
        </mxCell>
        <mxCell id="Xz8H3Bzz6eP4JOFIejTX-5" value="Company" style="shape=table;startSize=30;container=1;collapsible=1;childLayout=tableLayout;fixedRows=1;rowLines=0;fontStyle=1;align=center;resizeLast=1;html=1;spacing=1;verticalAlign=middle;" vertex="1" parent="1">
          <mxGeometry x="996" y="724" width="190" height="355" as="geometry" />
        </mxCell>
        <mxCell id="Xz8H3Bzz6eP4JOFIejTX-6" value="" style="shape=tableRow;horizontal=0;startSize=0;swimlaneHead=0;swimlaneBody=0;fillColor=none;collapsible=0;dropTarget=0;points=[[0,0.5],[1,0.5]];portConstraint=eastwest;top=0;left=0;right=0;bottom=1;" vertex="1" parent="Xz8H3Bzz6eP4JOFIejTX-5">
          <mxGeometry y="30" width="190" height="25" as="geometry" />
        </mxCell>
        <mxCell id="Xz8H3Bzz6eP4JOFIejTX-7" value="PK" style="shape=partialRectangle;connectable=0;fillColor=none;top=0;left=0;bottom=0;right=0;fontStyle=1;overflow=hidden;whiteSpace=wrap;html=1;" vertex="1" parent="Xz8H3Bzz6eP4JOFIejTX-6">
          <mxGeometry width="30" height="25" as="geometry">
            <mxRectangle width="30" height="25" as="alternateBounds" />
          </mxGeometry>
        </mxCell>
        <mxCell id="Xz8H3Bzz6eP4JOFIejTX-8" value="companyId" style="shape=partialRectangle;connectable=0;fillColor=none;top=0;left=0;bottom=0;right=0;align=left;spacingLeft=6;fontStyle=5;overflow=hidden;whiteSpace=wrap;html=1;" vertex="1" parent="Xz8H3Bzz6eP4JOFIejTX-6">
          <mxGeometry x="30" width="160" height="25" as="geometry">
            <mxRectangle width="160" height="25" as="alternateBounds" />
          </mxGeometry>
        </mxCell>
        <mxCell id="Xz8H3Bzz6eP4JOFIejTX-18" value="" style="shape=tableRow;horizontal=0;startSize=0;swimlaneHead=0;swimlaneBody=0;fillColor=none;collapsible=0;dropTarget=0;points=[[0,0.5],[1,0.5]];portConstraint=eastwest;top=0;left=0;right=0;bottom=0;" vertex="1" parent="Xz8H3Bzz6eP4JOFIejTX-5">
          <mxGeometry y="55" width="190" height="25" as="geometry" />
        </mxCell>
        <mxCell id="Xz8H3Bzz6eP4JOFIejTX-19" value="" style="shape=partialRectangle;connectable=0;fillColor=none;top=0;left=0;bottom=0;right=0;editable=1;overflow=hidden;whiteSpace=wrap;html=1;" vertex="1" parent="Xz8H3Bzz6eP4JOFIejTX-18">
          <mxGeometry width="30" height="25" as="geometry">
            <mxRectangle width="30" height="25" as="alternateBounds" />
          </mxGeometry>
        </mxCell>
        <mxCell id="Xz8H3Bzz6eP4JOFIejTX-20" value="companyName" style="shape=partialRectangle;connectable=0;fillColor=none;top=0;left=0;bottom=0;right=0;align=left;spacingLeft=6;overflow=hidden;whiteSpace=wrap;html=1;" vertex="1" parent="Xz8H3Bzz6eP4JOFIejTX-18">
          <mxGeometry x="30" width="160" height="25" as="geometry">
            <mxRectangle width="160" height="25" as="alternateBounds" />
          </mxGeometry>
        </mxCell>
        <mxCell id="Xz8H3Bzz6eP4JOFIejTX-15" value="" style="shape=tableRow;horizontal=0;startSize=0;swimlaneHead=0;swimlaneBody=0;fillColor=none;collapsible=0;dropTarget=0;points=[[0,0.5],[1,0.5]];portConstraint=eastwest;top=0;left=0;right=0;bottom=0;" vertex="1" parent="Xz8H3Bzz6eP4JOFIejTX-5">
          <mxGeometry y="80" width="190" height="25" as="geometry" />
        </mxCell>
        <mxCell id="Xz8H3Bzz6eP4JOFIejTX-16" value="" style="shape=partialRectangle;connectable=0;fillColor=none;top=0;left=0;bottom=0;right=0;editable=1;overflow=hidden;whiteSpace=wrap;html=1;" vertex="1" parent="Xz8H3Bzz6eP4JOFIejTX-15">
          <mxGeometry width="30" height="25" as="geometry">
            <mxRectangle width="30" height="25" as="alternateBounds" />
          </mxGeometry>
        </mxCell>
        <mxCell id="Xz8H3Bzz6eP4JOFIejTX-17" value="konum" style="shape=partialRectangle;connectable=0;fillColor=none;top=0;left=0;bottom=0;right=0;align=left;spacingLeft=6;overflow=hidden;whiteSpace=wrap;html=1;" vertex="1" parent="Xz8H3Bzz6eP4JOFIejTX-15">
          <mxGeometry x="30" width="160" height="25" as="geometry">
            <mxRectangle width="160" height="25" as="alternateBounds" />
          </mxGeometry>
        </mxCell>
        <mxCell id="Xz8H3Bzz6eP4JOFIejTX-21" value="" style="shape=tableRow;horizontal=0;startSize=0;swimlaneHead=0;swimlaneBody=0;fillColor=none;collapsible=0;dropTarget=0;points=[[0,0.5],[1,0.5]];portConstraint=eastwest;top=0;left=0;right=0;bottom=0;" vertex="1" parent="Xz8H3Bzz6eP4JOFIejTX-5">
          <mxGeometry y="105" width="190" height="25" as="geometry" />
        </mxCell>
        <mxCell id="Xz8H3Bzz6eP4JOFIejTX-22" value="" style="shape=partialRectangle;connectable=0;fillColor=none;top=0;left=0;bottom=0;right=0;editable=1;overflow=hidden;whiteSpace=wrap;html=1;" vertex="1" parent="Xz8H3Bzz6eP4JOFIejTX-21">
          <mxGeometry width="30" height="25" as="geometry">
            <mxRectangle width="30" height="25" as="alternateBounds" />
          </mxGeometry>
        </mxCell>
        <mxCell id="Xz8H3Bzz6eP4JOFIejTX-23" value="pictureUrl&lt;span style=&quot;white-space: pre;&quot;&gt;&#x9;&lt;/span&gt;" style="shape=partialRectangle;connectable=0;fillColor=none;top=0;left=0;bottom=0;right=0;align=left;spacingLeft=6;overflow=hidden;whiteSpace=wrap;html=1;" vertex="1" parent="Xz8H3Bzz6eP4JOFIejTX-21">
          <mxGeometry x="30" width="160" height="25" as="geometry">
            <mxRectangle width="160" height="25" as="alternateBounds" />
          </mxGeometry>
        </mxCell>
        <mxCell id="Xz8H3Bzz6eP4JOFIejTX-24" value="" style="shape=tableRow;horizontal=0;startSize=0;swimlaneHead=0;swimlaneBody=0;fillColor=none;collapsible=0;dropTarget=0;points=[[0,0.5],[1,0.5]];portConstraint=eastwest;top=0;left=0;right=0;bottom=0;" vertex="1" parent="Xz8H3Bzz6eP4JOFIejTX-5">
          <mxGeometry y="130" width="190" height="25" as="geometry" />
        </mxCell>
        <mxCell id="Xz8H3Bzz6eP4JOFIejTX-25" value="" style="shape=partialRectangle;connectable=0;fillColor=none;top=0;left=0;bottom=0;right=0;editable=1;overflow=hidden;whiteSpace=wrap;html=1;" vertex="1" parent="Xz8H3Bzz6eP4JOFIejTX-24">
          <mxGeometry width="30" height="25" as="geometry">
            <mxRectangle width="30" height="25" as="alternateBounds" />
          </mxGeometry>
        </mxCell>
        <mxCell id="Xz8H3Bzz6eP4JOFIejTX-26" value="about" style="shape=partialRectangle;connectable=0;fillColor=none;top=0;left=0;bottom=0;right=0;align=left;spacingLeft=6;overflow=hidden;whiteSpace=wrap;html=1;" vertex="1" parent="Xz8H3Bzz6eP4JOFIejTX-24">
          <mxGeometry x="30" width="160" height="25" as="geometry">
            <mxRectangle width="160" height="25" as="alternateBounds" />
          </mxGeometry>
        </mxCell>
        <mxCell id="Xz8H3Bzz6eP4JOFIejTX-27" value="" style="shape=tableRow;horizontal=0;startSize=0;swimlaneHead=0;swimlaneBody=0;fillColor=none;collapsible=0;dropTarget=0;points=[[0,0.5],[1,0.5]];portConstraint=eastwest;top=0;left=0;right=0;bottom=0;" vertex="1" parent="Xz8H3Bzz6eP4JOFIejTX-5">
          <mxGeometry y="155" width="190" height="25" as="geometry" />
        </mxCell>
        <mxCell id="Xz8H3Bzz6eP4JOFIejTX-28" value="" style="shape=partialRectangle;connectable=0;fillColor=none;top=0;left=0;bottom=0;right=0;editable=1;overflow=hidden;whiteSpace=wrap;html=1;" vertex="1" parent="Xz8H3Bzz6eP4JOFIejTX-27">
          <mxGeometry width="30" height="25" as="geometry">
            <mxRectangle width="30" height="25" as="alternateBounds" />
          </mxGeometry>
        </mxCell>
        <mxCell id="Xz8H3Bzz6eP4JOFIejTX-29" value="website" style="shape=partialRectangle;connectable=0;fillColor=none;top=0;left=0;bottom=0;right=0;align=left;spacingLeft=6;overflow=hidden;whiteSpace=wrap;html=1;" vertex="1" parent="Xz8H3Bzz6eP4JOFIejTX-27">
          <mxGeometry x="30" width="160" height="25" as="geometry">
            <mxRectangle width="160" height="25" as="alternateBounds" />
          </mxGeometry>
        </mxCell>
        <mxCell id="Xz8H3Bzz6eP4JOFIejTX-30" value="" style="shape=tableRow;horizontal=0;startSize=0;swimlaneHead=0;swimlaneBody=0;fillColor=none;collapsible=0;dropTarget=0;points=[[0,0.5],[1,0.5]];portConstraint=eastwest;top=0;left=0;right=0;bottom=0;" vertex="1" parent="Xz8H3Bzz6eP4JOFIejTX-5">
          <mxGeometry y="180" width="190" height="25" as="geometry" />
        </mxCell>
        <mxCell id="Xz8H3Bzz6eP4JOFIejTX-31" value="" style="shape=partialRectangle;connectable=0;fillColor=none;top=0;left=0;bottom=0;right=0;editable=1;overflow=hidden;whiteSpace=wrap;html=1;" vertex="1" parent="Xz8H3Bzz6eP4JOFIejTX-30">
          <mxGeometry width="30" height="25" as="geometry">
            <mxRectangle width="30" height="25" as="alternateBounds" />
          </mxGeometry>
        </mxCell>
        <mxCell id="Xz8H3Bzz6eP4JOFIejTX-32" value="founded" style="shape=partialRectangle;connectable=0;fillColor=none;top=0;left=0;bottom=0;right=0;align=left;spacingLeft=6;overflow=hidden;whiteSpace=wrap;html=1;" vertex="1" parent="Xz8H3Bzz6eP4JOFIejTX-30">
          <mxGeometry x="30" width="160" height="25" as="geometry">
            <mxRectangle width="160" height="25" as="alternateBounds" />
          </mxGeometry>
        </mxCell>
        <mxCell id="Xz8H3Bzz6eP4JOFIejTX-33" value="" style="shape=tableRow;horizontal=0;startSize=0;swimlaneHead=0;swimlaneBody=0;fillColor=none;collapsible=0;dropTarget=0;points=[[0,0.5],[1,0.5]];portConstraint=eastwest;top=0;left=0;right=0;bottom=0;" vertex="1" parent="Xz8H3Bzz6eP4JOFIejTX-5">
          <mxGeometry y="205" width="190" height="25" as="geometry" />
        </mxCell>
        <mxCell id="Xz8H3Bzz6eP4JOFIejTX-34" value="" style="shape=partialRectangle;connectable=0;fillColor=none;top=0;left=0;bottom=0;right=0;editable=1;overflow=hidden;whiteSpace=wrap;html=1;" vertex="1" parent="Xz8H3Bzz6eP4JOFIejTX-33">
          <mxGeometry width="30" height="25" as="geometry">
            <mxRectangle width="30" height="25" as="alternateBounds" />
          </mxGeometry>
        </mxCell>
        <mxCell id="Xz8H3Bzz6eP4JOFIejTX-35" value="githubUserName&lt;span style=&quot;white-space: pre;&quot;&gt;&#x9;&lt;/span&gt;" style="shape=partialRectangle;connectable=0;fillColor=none;top=0;left=0;bottom=0;right=0;align=left;spacingLeft=6;overflow=hidden;whiteSpace=wrap;html=1;" vertex="1" parent="Xz8H3Bzz6eP4JOFIejTX-33">
          <mxGeometry x="30" width="160" height="25" as="geometry">
            <mxRectangle width="160" height="25" as="alternateBounds" />
          </mxGeometry>
        </mxCell>
        <mxCell id="Xz8H3Bzz6eP4JOFIejTX-36" value="" style="shape=tableRow;horizontal=0;startSize=0;swimlaneHead=0;swimlaneBody=0;fillColor=none;collapsible=0;dropTarget=0;points=[[0,0.5],[1,0.5]];portConstraint=eastwest;top=0;left=0;right=0;bottom=0;" vertex="1" parent="Xz8H3Bzz6eP4JOFIejTX-5">
          <mxGeometry y="230" width="190" height="25" as="geometry" />
        </mxCell>
        <mxCell id="Xz8H3Bzz6eP4JOFIejTX-37" value="" style="shape=partialRectangle;connectable=0;fillColor=none;top=0;left=0;bottom=0;right=0;editable=1;overflow=hidden;whiteSpace=wrap;html=1;" vertex="1" parent="Xz8H3Bzz6eP4JOFIejTX-36">
          <mxGeometry width="30" height="25" as="geometry">
            <mxRectangle width="30" height="25" as="alternateBounds" />
          </mxGeometry>
        </mxCell>
        <mxCell id="Xz8H3Bzz6eP4JOFIejTX-38" value="twitterUserName" style="shape=partialRectangle;connectable=0;fillColor=none;top=0;left=0;bottom=0;right=0;align=left;spacingLeft=6;overflow=hidden;whiteSpace=wrap;html=1;" vertex="1" parent="Xz8H3Bzz6eP4JOFIejTX-36">
          <mxGeometry x="30" width="160" height="25" as="geometry">
            <mxRectangle width="160" height="25" as="alternateBounds" />
          </mxGeometry>
        </mxCell>
        <mxCell id="Xz8H3Bzz6eP4JOFIejTX-104" value="" style="shape=tableRow;horizontal=0;startSize=0;swimlaneHead=0;swimlaneBody=0;fillColor=none;collapsible=0;dropTarget=0;points=[[0,0.5],[1,0.5]];portConstraint=eastwest;top=0;left=0;right=0;bottom=0;" vertex="1" parent="Xz8H3Bzz6eP4JOFIejTX-5">
          <mxGeometry y="255" width="190" height="25" as="geometry" />
        </mxCell>
        <mxCell id="Xz8H3Bzz6eP4JOFIejTX-105" value="" style="shape=partialRectangle;connectable=0;fillColor=none;top=0;left=0;bottom=0;right=0;editable=1;overflow=hidden;whiteSpace=wrap;html=1;" vertex="1" parent="Xz8H3Bzz6eP4JOFIejTX-104">
          <mxGeometry width="30" height="25" as="geometry">
            <mxRectangle width="30" height="25" as="alternateBounds" />
          </mxGeometry>
        </mxCell>
        <mxCell id="Xz8H3Bzz6eP4JOFIejTX-106" value="facebookUserName" style="shape=partialRectangle;connectable=0;fillColor=none;top=0;left=0;bottom=0;right=0;align=left;spacingLeft=6;overflow=hidden;whiteSpace=wrap;html=1;" vertex="1" parent="Xz8H3Bzz6eP4JOFIejTX-104">
          <mxGeometry x="30" width="160" height="25" as="geometry">
            <mxRectangle width="160" height="25" as="alternateBounds" />
          </mxGeometry>
        </mxCell>
        <mxCell id="Xz8H3Bzz6eP4JOFIejTX-107" value="" style="shape=tableRow;horizontal=0;startSize=0;swimlaneHead=0;swimlaneBody=0;fillColor=none;collapsible=0;dropTarget=0;points=[[0,0.5],[1,0.5]];portConstraint=eastwest;top=0;left=0;right=0;bottom=0;" vertex="1" parent="Xz8H3Bzz6eP4JOFIejTX-5">
          <mxGeometry y="280" width="190" height="25" as="geometry" />
        </mxCell>
        <mxCell id="Xz8H3Bzz6eP4JOFIejTX-108" value="" style="shape=partialRectangle;connectable=0;fillColor=none;top=0;left=0;bottom=0;right=0;editable=1;overflow=hidden;whiteSpace=wrap;html=1;" vertex="1" parent="Xz8H3Bzz6eP4JOFIejTX-107">
          <mxGeometry width="30" height="25" as="geometry">
            <mxRectangle width="30" height="25" as="alternateBounds" />
          </mxGeometry>
        </mxCell>
        <mxCell id="Xz8H3Bzz6eP4JOFIejTX-109" value="instagramUserName" style="shape=partialRectangle;connectable=0;fillColor=none;top=0;left=0;bottom=0;right=0;align=left;spacingLeft=6;overflow=hidden;whiteSpace=wrap;html=1;" vertex="1" parent="Xz8H3Bzz6eP4JOFIejTX-107">
          <mxGeometry x="30" width="160" height="25" as="geometry">
            <mxRectangle width="160" height="25" as="alternateBounds" />
          </mxGeometry>
        </mxCell>
        <mxCell id="Xz8H3Bzz6eP4JOFIejTX-39" value="" style="shape=tableRow;horizontal=0;startSize=0;swimlaneHead=0;swimlaneBody=0;fillColor=none;collapsible=0;dropTarget=0;points=[[0,0.5],[1,0.5]];portConstraint=eastwest;top=0;left=0;right=0;bottom=0;" vertex="1" parent="Xz8H3Bzz6eP4JOFIejTX-5">
          <mxGeometry y="305" width="190" height="25" as="geometry" />
        </mxCell>
        <mxCell id="Xz8H3Bzz6eP4JOFIejTX-40" value="" style="shape=partialRectangle;connectable=0;fillColor=none;top=0;left=0;bottom=0;right=0;editable=1;overflow=hidden;whiteSpace=wrap;html=1;" vertex="1" parent="Xz8H3Bzz6eP4JOFIejTX-39">
          <mxGeometry width="30" height="25" as="geometry">
            <mxRectangle width="30" height="25" as="alternateBounds" />
          </mxGeometry>
        </mxCell>
        <mxCell id="Xz8H3Bzz6eP4JOFIejTX-41" value="creationTime" style="shape=partialRectangle;connectable=0;fillColor=none;top=0;left=0;bottom=0;right=0;align=left;spacingLeft=6;overflow=hidden;whiteSpace=wrap;html=1;" vertex="1" parent="Xz8H3Bzz6eP4JOFIejTX-39">
          <mxGeometry x="30" width="160" height="25" as="geometry">
            <mxRectangle width="160" height="25" as="alternateBounds" />
          </mxGeometry>
        </mxCell>
        <mxCell id="Xz8H3Bzz6eP4JOFIejTX-42" value="" style="shape=tableRow;horizontal=0;startSize=0;swimlaneHead=0;swimlaneBody=0;fillColor=none;collapsible=0;dropTarget=0;points=[[0,0.5],[1,0.5]];portConstraint=eastwest;top=0;left=0;right=0;bottom=0;" vertex="1" parent="Xz8H3Bzz6eP4JOFIejTX-5">
          <mxGeometry y="330" width="190" height="25" as="geometry" />
        </mxCell>
        <mxCell id="Xz8H3Bzz6eP4JOFIejTX-43" value="" style="shape=partialRectangle;connectable=0;fillColor=none;top=0;left=0;bottom=0;right=0;editable=1;overflow=hidden;whiteSpace=wrap;html=1;" vertex="1" parent="Xz8H3Bzz6eP4JOFIejTX-42">
          <mxGeometry width="30" height="25" as="geometry">
            <mxRectangle width="30" height="25" as="alternateBounds" />
          </mxGeometry>
        </mxCell>
        <mxCell id="Xz8H3Bzz6eP4JOFIejTX-44" value="lastModificationTime" style="shape=partialRectangle;connectable=0;fillColor=none;top=0;left=0;bottom=0;right=0;align=left;spacingLeft=6;overflow=hidden;whiteSpace=wrap;html=1;" vertex="1" parent="Xz8H3Bzz6eP4JOFIejTX-42">
          <mxGeometry x="30" width="160" height="25" as="geometry">
            <mxRectangle width="160" height="25" as="alternateBounds" />
          </mxGeometry>
        </mxCell>
        <mxCell id="Xz8H3Bzz6eP4JOFIejTX-45" value="Company_Videos" style="shape=table;startSize=30;container=1;collapsible=1;childLayout=tableLayout;fixedRows=1;rowLines=0;fontStyle=1;align=center;resizeLast=1;html=1;spacing=1;verticalAlign=middle;" vertex="1" parent="1">
          <mxGeometry x="1283" y="770" width="180" height="130" as="geometry" />
        </mxCell>
        <mxCell id="Xz8H3Bzz6eP4JOFIejTX-46" value="" style="shape=tableRow;horizontal=0;startSize=0;swimlaneHead=0;swimlaneBody=0;fillColor=none;collapsible=0;dropTarget=0;points=[[0,0.5],[1,0.5]];portConstraint=eastwest;top=0;left=0;right=0;bottom=1;" vertex="1" parent="Xz8H3Bzz6eP4JOFIejTX-45">
          <mxGeometry y="30" width="180" height="25" as="geometry" />
        </mxCell>
        <mxCell id="Xz8H3Bzz6eP4JOFIejTX-47" value="PK" style="shape=partialRectangle;connectable=0;fillColor=none;top=0;left=0;bottom=0;right=0;fontStyle=1;overflow=hidden;whiteSpace=wrap;html=1;" vertex="1" parent="Xz8H3Bzz6eP4JOFIejTX-46">
          <mxGeometry width="30" height="25" as="geometry">
            <mxRectangle width="30" height="25" as="alternateBounds" />
          </mxGeometry>
        </mxCell>
        <mxCell id="Xz8H3Bzz6eP4JOFIejTX-48" value="&lt;span style=&quot;font-weight: 400;&quot;&gt;videoId&lt;/span&gt;" style="shape=partialRectangle;connectable=0;fillColor=none;top=0;left=0;bottom=0;right=0;align=left;spacingLeft=6;fontStyle=5;overflow=hidden;whiteSpace=wrap;html=1;" vertex="1" parent="Xz8H3Bzz6eP4JOFIejTX-46">
          <mxGeometry x="30" width="150" height="25" as="geometry">
            <mxRectangle width="150" height="25" as="alternateBounds" />
          </mxGeometry>
        </mxCell>
        <mxCell id="Xz8H3Bzz6eP4JOFIejTX-49" value="" style="shape=tableRow;horizontal=0;startSize=0;swimlaneHead=0;swimlaneBody=0;fillColor=none;collapsible=0;dropTarget=0;points=[[0,0.5],[1,0.5]];portConstraint=eastwest;top=0;left=0;right=0;bottom=0;" vertex="1" parent="Xz8H3Bzz6eP4JOFIejTX-45">
          <mxGeometry y="55" width="180" height="25" as="geometry" />
        </mxCell>
        <mxCell id="Xz8H3Bzz6eP4JOFIejTX-50" value="FK" style="shape=partialRectangle;connectable=0;fillColor=none;top=0;left=0;bottom=0;right=0;editable=1;overflow=hidden;whiteSpace=wrap;html=1;" vertex="1" parent="Xz8H3Bzz6eP4JOFIejTX-49">
          <mxGeometry width="30" height="25" as="geometry">
            <mxRectangle width="30" height="25" as="alternateBounds" />
          </mxGeometry>
        </mxCell>
        <mxCell id="Xz8H3Bzz6eP4JOFIejTX-51" value="companyId" style="shape=partialRectangle;connectable=0;fillColor=none;top=0;left=0;bottom=0;right=0;align=left;spacingLeft=6;overflow=hidden;whiteSpace=wrap;html=1;" vertex="1" parent="Xz8H3Bzz6eP4JOFIejTX-49">
          <mxGeometry x="30" width="150" height="25" as="geometry">
            <mxRectangle width="150" height="25" as="alternateBounds" />
          </mxGeometry>
        </mxCell>
        <mxCell id="Xz8H3Bzz6eP4JOFIejTX-58" value="" style="shape=tableRow;horizontal=0;startSize=0;swimlaneHead=0;swimlaneBody=0;fillColor=none;collapsible=0;dropTarget=0;points=[[0,0.5],[1,0.5]];portConstraint=eastwest;top=0;left=0;right=0;bottom=0;" vertex="1" parent="Xz8H3Bzz6eP4JOFIejTX-45">
          <mxGeometry y="80" width="180" height="25" as="geometry" />
        </mxCell>
        <mxCell id="Xz8H3Bzz6eP4JOFIejTX-59" value="" style="shape=partialRectangle;connectable=0;fillColor=none;top=0;left=0;bottom=0;right=0;editable=1;overflow=hidden;whiteSpace=wrap;html=1;" vertex="1" parent="Xz8H3Bzz6eP4JOFIejTX-58">
          <mxGeometry width="30" height="25" as="geometry">
            <mxRectangle width="30" height="25" as="alternateBounds" />
          </mxGeometry>
        </mxCell>
        <mxCell id="Xz8H3Bzz6eP4JOFIejTX-60" value="videoUrl" style="shape=partialRectangle;connectable=0;fillColor=none;top=0;left=0;bottom=0;right=0;align=left;spacingLeft=6;overflow=hidden;whiteSpace=wrap;html=1;" vertex="1" parent="Xz8H3Bzz6eP4JOFIejTX-58">
          <mxGeometry x="30" width="150" height="25" as="geometry">
            <mxRectangle width="150" height="25" as="alternateBounds" />
          </mxGeometry>
        </mxCell>
        <mxCell id="Xz8H3Bzz6eP4JOFIejTX-61" value="" style="shape=tableRow;horizontal=0;startSize=0;swimlaneHead=0;swimlaneBody=0;fillColor=none;collapsible=0;dropTarget=0;points=[[0,0.5],[1,0.5]];portConstraint=eastwest;top=0;left=0;right=0;bottom=0;" vertex="1" parent="Xz8H3Bzz6eP4JOFIejTX-45">
          <mxGeometry y="105" width="180" height="25" as="geometry" />
        </mxCell>
        <mxCell id="Xz8H3Bzz6eP4JOFIejTX-62" value="" style="shape=partialRectangle;connectable=0;fillColor=none;top=0;left=0;bottom=0;right=0;editable=1;overflow=hidden;whiteSpace=wrap;html=1;" vertex="1" parent="Xz8H3Bzz6eP4JOFIejTX-61">
          <mxGeometry width="30" height="25" as="geometry">
            <mxRectangle width="30" height="25" as="alternateBounds" />
          </mxGeometry>
        </mxCell>
        <mxCell id="Xz8H3Bzz6eP4JOFIejTX-63" value="creationTime" style="shape=partialRectangle;connectable=0;fillColor=none;top=0;left=0;bottom=0;right=0;align=left;spacingLeft=6;overflow=hidden;whiteSpace=wrap;html=1;" vertex="1" parent="Xz8H3Bzz6eP4JOFIejTX-61">
          <mxGeometry x="30" width="150" height="25" as="geometry">
            <mxRectangle width="150" height="25" as="alternateBounds" />
          </mxGeometry>
        </mxCell>
        <mxCell id="Xz8H3Bzz6eP4JOFIejTX-64" value="" style="edgeStyle=orthogonalEdgeStyle;fontSize=12;html=1;endArrow=ERzeroToMany;startArrow=ERmandOne;rounded=0;strokeWidth=2;endFill=0;dashed=1;" edge="1" parent="1" source="Xz8H3Bzz6eP4JOFIejTX-6" target="Xz8H3Bzz6eP4JOFIejTX-49">
          <mxGeometry width="100" height="100" relative="1" as="geometry">
            <mxPoint x="999" y="992" as="sourcePoint" />
            <mxPoint x="920" y="1405" as="targetPoint" />
            <Array as="points">
              <mxPoint x="1250" y="767" />
              <mxPoint x="1250" y="837" />
            </Array>
          </mxGeometry>
        </mxCell>
        <mxCell id="Xz8H3Bzz6eP4JOFIejTX-65" value="Company_Activities" style="shape=table;startSize=30;container=1;collapsible=1;childLayout=tableLayout;fixedRows=1;rowLines=0;fontStyle=1;align=center;resizeLast=1;html=1;spacing=1;verticalAlign=middle;" vertex="1" parent="1">
          <mxGeometry x="1281.5" y="940" width="180" height="130" as="geometry" />
        </mxCell>
        <mxCell id="Xz8H3Bzz6eP4JOFIejTX-66" value="" style="shape=tableRow;horizontal=0;startSize=0;swimlaneHead=0;swimlaneBody=0;fillColor=none;collapsible=0;dropTarget=0;points=[[0,0.5],[1,0.5]];portConstraint=eastwest;top=0;left=0;right=0;bottom=1;" vertex="1" parent="Xz8H3Bzz6eP4JOFIejTX-65">
          <mxGeometry y="30" width="180" height="25" as="geometry" />
        </mxCell>
        <mxCell id="Xz8H3Bzz6eP4JOFIejTX-67" value="PK" style="shape=partialRectangle;connectable=0;fillColor=none;top=0;left=0;bottom=0;right=0;fontStyle=1;overflow=hidden;whiteSpace=wrap;html=1;" vertex="1" parent="Xz8H3Bzz6eP4JOFIejTX-66">
          <mxGeometry width="30" height="25" as="geometry">
            <mxRectangle width="30" height="25" as="alternateBounds" />
          </mxGeometry>
        </mxCell>
        <mxCell id="Xz8H3Bzz6eP4JOFIejTX-68" value="&lt;span style=&quot;font-weight: 400;&quot;&gt;activityId&lt;/span&gt;" style="shape=partialRectangle;connectable=0;fillColor=none;top=0;left=0;bottom=0;right=0;align=left;spacingLeft=6;fontStyle=5;overflow=hidden;whiteSpace=wrap;html=1;" vertex="1" parent="Xz8H3Bzz6eP4JOFIejTX-66">
          <mxGeometry x="30" width="150" height="25" as="geometry">
            <mxRectangle width="150" height="25" as="alternateBounds" />
          </mxGeometry>
        </mxCell>
        <mxCell id="Xz8H3Bzz6eP4JOFIejTX-69" value="" style="shape=tableRow;horizontal=0;startSize=0;swimlaneHead=0;swimlaneBody=0;fillColor=none;collapsible=0;dropTarget=0;points=[[0,0.5],[1,0.5]];portConstraint=eastwest;top=0;left=0;right=0;bottom=0;" vertex="1" parent="Xz8H3Bzz6eP4JOFIejTX-65">
          <mxGeometry y="55" width="180" height="25" as="geometry" />
        </mxCell>
        <mxCell id="Xz8H3Bzz6eP4JOFIejTX-70" value="FK" style="shape=partialRectangle;connectable=0;fillColor=none;top=0;left=0;bottom=0;right=0;editable=1;overflow=hidden;whiteSpace=wrap;html=1;" vertex="1" parent="Xz8H3Bzz6eP4JOFIejTX-69">
          <mxGeometry width="30" height="25" as="geometry">
            <mxRectangle width="30" height="25" as="alternateBounds" />
          </mxGeometry>
        </mxCell>
        <mxCell id="Xz8H3Bzz6eP4JOFIejTX-71" value="companyId" style="shape=partialRectangle;connectable=0;fillColor=none;top=0;left=0;bottom=0;right=0;align=left;spacingLeft=6;overflow=hidden;whiteSpace=wrap;html=1;" vertex="1" parent="Xz8H3Bzz6eP4JOFIejTX-69">
          <mxGeometry x="30" width="150" height="25" as="geometry">
            <mxRectangle width="150" height="25" as="alternateBounds" />
          </mxGeometry>
        </mxCell>
        <mxCell id="Xz8H3Bzz6eP4JOFIejTX-72" value="" style="shape=tableRow;horizontal=0;startSize=0;swimlaneHead=0;swimlaneBody=0;fillColor=none;collapsible=0;dropTarget=0;points=[[0,0.5],[1,0.5]];portConstraint=eastwest;top=0;left=0;right=0;bottom=0;" vertex="1" parent="Xz8H3Bzz6eP4JOFIejTX-65">
          <mxGeometry y="80" width="180" height="25" as="geometry" />
        </mxCell>
        <mxCell id="Xz8H3Bzz6eP4JOFIejTX-73" value="" style="shape=partialRectangle;connectable=0;fillColor=none;top=0;left=0;bottom=0;right=0;editable=1;overflow=hidden;whiteSpace=wrap;html=1;" vertex="1" parent="Xz8H3Bzz6eP4JOFIejTX-72">
          <mxGeometry width="30" height="25" as="geometry">
            <mxRectangle width="30" height="25" as="alternateBounds" />
          </mxGeometry>
        </mxCell>
        <mxCell id="Xz8H3Bzz6eP4JOFIejTX-74" value="activity" style="shape=partialRectangle;connectable=0;fillColor=none;top=0;left=0;bottom=0;right=0;align=left;spacingLeft=6;overflow=hidden;whiteSpace=wrap;html=1;" vertex="1" parent="Xz8H3Bzz6eP4JOFIejTX-72">
          <mxGeometry x="30" width="150" height="25" as="geometry">
            <mxRectangle width="150" height="25" as="alternateBounds" />
          </mxGeometry>
        </mxCell>
        <mxCell id="Xz8H3Bzz6eP4JOFIejTX-75" value="" style="shape=tableRow;horizontal=0;startSize=0;swimlaneHead=0;swimlaneBody=0;fillColor=none;collapsible=0;dropTarget=0;points=[[0,0.5],[1,0.5]];portConstraint=eastwest;top=0;left=0;right=0;bottom=0;" vertex="1" parent="Xz8H3Bzz6eP4JOFIejTX-65">
          <mxGeometry y="105" width="180" height="25" as="geometry" />
        </mxCell>
        <mxCell id="Xz8H3Bzz6eP4JOFIejTX-76" value="" style="shape=partialRectangle;connectable=0;fillColor=none;top=0;left=0;bottom=0;right=0;editable=1;overflow=hidden;whiteSpace=wrap;html=1;" vertex="1" parent="Xz8H3Bzz6eP4JOFIejTX-75">
          <mxGeometry width="30" height="25" as="geometry">
            <mxRectangle width="30" height="25" as="alternateBounds" />
          </mxGeometry>
        </mxCell>
        <mxCell id="Xz8H3Bzz6eP4JOFIejTX-77" value="creationTime" style="shape=partialRectangle;connectable=0;fillColor=none;top=0;left=0;bottom=0;right=0;align=left;spacingLeft=6;overflow=hidden;whiteSpace=wrap;html=1;" vertex="1" parent="Xz8H3Bzz6eP4JOFIejTX-75">
          <mxGeometry x="30" width="150" height="25" as="geometry">
            <mxRectangle width="150" height="25" as="alternateBounds" />
          </mxGeometry>
        </mxCell>
        <mxCell id="Xz8H3Bzz6eP4JOFIejTX-78" value="" style="fontSize=12;html=1;endArrow=ERzeroToMany;startArrow=ERmandOne;rounded=0;strokeWidth=2;endFill=0;dashed=1;edgeStyle=orthogonalEdgeStyle;" edge="1" parent="1" source="Xz8H3Bzz6eP4JOFIejTX-6" target="Xz8H3Bzz6eP4JOFIejTX-69">
          <mxGeometry width="100" height="100" relative="1" as="geometry">
            <mxPoint x="563.7200000000003" y="1159.995" as="sourcePoint" />
            <mxPoint x="500" y="1354.57" as="targetPoint" />
            <Array as="points">
              <mxPoint x="1230" y="767" />
              <mxPoint x="1230" y="1007" />
            </Array>
          </mxGeometry>
        </mxCell>
        <mxCell id="Xz8H3Bzz6eP4JOFIejTX-79" value="Company_T&lt;span style=&quot;text-wrap: wrap; font-weight: 400; text-align: left;&quot;&gt;echnologies&lt;/span&gt;" style="shape=table;startSize=30;container=1;collapsible=1;childLayout=tableLayout;fixedRows=1;rowLines=0;fontStyle=1;align=center;resizeLast=1;html=1;spacing=1;verticalAlign=middle;" vertex="1" parent="1">
          <mxGeometry x="1281.5" y="1100" width="180" height="80" as="geometry" />
        </mxCell>
        <mxCell id="Xz8H3Bzz6eP4JOFIejTX-83" value="" style="shape=tableRow;horizontal=0;startSize=0;swimlaneHead=0;swimlaneBody=0;fillColor=none;collapsible=0;dropTarget=0;points=[[0,0.5],[1,0.5]];portConstraint=eastwest;top=0;left=0;right=0;bottom=0;" vertex="1" parent="Xz8H3Bzz6eP4JOFIejTX-79">
          <mxGeometry y="30" width="180" height="25" as="geometry" />
        </mxCell>
        <mxCell id="Xz8H3Bzz6eP4JOFIejTX-84" value="&lt;span style=&quot;font-weight: 700;&quot;&gt;PK FK&lt;/span&gt;" style="shape=partialRectangle;connectable=0;fillColor=none;top=0;left=0;bottom=0;right=0;editable=1;overflow=hidden;whiteSpace=wrap;html=1;" vertex="1" parent="Xz8H3Bzz6eP4JOFIejTX-83">
          <mxGeometry width="47" height="25" as="geometry">
            <mxRectangle width="47" height="25" as="alternateBounds" />
          </mxGeometry>
        </mxCell>
        <mxCell id="Xz8H3Bzz6eP4JOFIejTX-85" value="companyId" style="shape=partialRectangle;connectable=0;fillColor=none;top=0;left=0;bottom=0;right=0;align=left;spacingLeft=6;overflow=hidden;whiteSpace=wrap;html=1;" vertex="1" parent="Xz8H3Bzz6eP4JOFIejTX-83">
          <mxGeometry x="47" width="133" height="25" as="geometry">
            <mxRectangle width="133" height="25" as="alternateBounds" />
          </mxGeometry>
        </mxCell>
        <mxCell id="Xz8H3Bzz6eP4JOFIejTX-86" value="" style="shape=tableRow;horizontal=0;startSize=0;swimlaneHead=0;swimlaneBody=0;fillColor=none;collapsible=0;dropTarget=0;points=[[0,0.5],[1,0.5]];portConstraint=eastwest;top=0;left=0;right=0;bottom=0;" vertex="1" parent="Xz8H3Bzz6eP4JOFIejTX-79">
          <mxGeometry y="55" width="180" height="25" as="geometry" />
        </mxCell>
        <mxCell id="Xz8H3Bzz6eP4JOFIejTX-87" value="&lt;span style=&quot;font-weight: 700;&quot;&gt;PK FK&lt;/span&gt;" style="shape=partialRectangle;connectable=0;fillColor=none;top=0;left=0;bottom=0;right=0;editable=1;overflow=hidden;whiteSpace=wrap;html=1;" vertex="1" parent="Xz8H3Bzz6eP4JOFIejTX-86">
          <mxGeometry width="47" height="25" as="geometry">
            <mxRectangle width="47" height="25" as="alternateBounds" />
          </mxGeometry>
        </mxCell>
        <mxCell id="Xz8H3Bzz6eP4JOFIejTX-88" value="technologyId" style="shape=partialRectangle;connectable=0;fillColor=none;top=0;left=0;bottom=0;right=0;align=left;spacingLeft=6;overflow=hidden;whiteSpace=wrap;html=1;" vertex="1" parent="Xz8H3Bzz6eP4JOFIejTX-86">
          <mxGeometry x="47" width="133" height="25" as="geometry">
            <mxRectangle width="133" height="25" as="alternateBounds" />
          </mxGeometry>
        </mxCell>
        <mxCell id="Xz8H3Bzz6eP4JOFIejTX-92" style="rounded=0;orthogonalLoop=1;jettySize=auto;html=1;endArrow=ERoneToMany;endFill=0;startArrow=ERmandOne;startFill=0;strokeWidth=2;edgeStyle=orthogonalEdgeStyle;entryX=0;entryY=0.5;entryDx=0;entryDy=0;exitX=1;exitY=0.5;exitDx=0;exitDy=0;" edge="1" parent="1" source="Xz8H3Bzz6eP4JOFIejTX-6" target="Xz8H3Bzz6eP4JOFIejTX-83">
          <mxGeometry relative="1" as="geometry">
            <mxPoint x="550" y="1170" as="sourcePoint" />
            <mxPoint x="300" y="760" as="targetPoint" />
            <Array as="points">
              <mxPoint x="1210" y="767" />
              <mxPoint x="1210" y="1143" />
            </Array>
          </mxGeometry>
        </mxCell>
        <mxCell id="Xz8H3Bzz6eP4JOFIejTX-93" value="" style="edgeStyle=orthogonalEdgeStyle;fontSize=12;html=1;endArrow=ERzeroToMany;startArrow=ERmandOne;rounded=0;entryX=0;entryY=0.5;entryDx=0;entryDy=0;strokeWidth=2;endFill=0;exitX=0;exitY=0.5;exitDx=0;exitDy=0;" edge="1" parent="1" source="tYSgIUjlhCanpnmfUqg1-208" target="Xz8H3Bzz6eP4JOFIejTX-86">
          <mxGeometry width="100" height="100" relative="1" as="geometry">
            <mxPoint x="43" y="1006.0699999999999" as="sourcePoint" />
            <mxPoint x="43" y="860.0699999999999" as="targetPoint" />
            <Array as="points">
              <mxPoint x="30" y="713" />
              <mxPoint x="30" y="1167" />
            </Array>
          </mxGeometry>
        </mxCell>
        <mxCell id="Xz8H3Bzz6eP4JOFIejTX-102" style="rounded=0;orthogonalLoop=1;jettySize=auto;html=1;endArrow=ERoneToMany;endFill=0;startArrow=ERmandOne;startFill=0;strokeWidth=2;edgeStyle=orthogonalEdgeStyle;exitX=0;exitY=0.5;exitDx=0;exitDy=0;entryX=1;entryY=0.5;entryDx=0;entryDy=0;" edge="1" parent="1" source="Xz8H3Bzz6eP4JOFIejTX-6" target="Xz8H3Bzz6eP4JOFIejTX-96">
          <mxGeometry relative="1" as="geometry">
            <mxPoint x="730" y="1186" as="sourcePoint" />
            <mxPoint x="570" y="1170" as="targetPoint" />
            <Array as="points">
              <mxPoint x="920" y="767" />
              <mxPoint x="920" y="1083" />
            </Array>
          </mxGeometry>
        </mxCell>
        <mxCell id="Xz8H3Bzz6eP4JOFIejTX-103" style="rounded=0;orthogonalLoop=1;jettySize=auto;html=1;endArrow=ERoneToMany;endFill=0;startArrow=ERmandOne;startFill=0;strokeWidth=2;exitX=1;exitY=0.5;exitDx=0;exitDy=0;edgeStyle=orthogonalEdgeStyle;entryX=0;entryY=0.5;entryDx=0;entryDy=0;" edge="1" parent="1" source="yLUDJvTatkyBeT4OISrp-2" target="Xz8H3Bzz6eP4JOFIejTX-99">
          <mxGeometry relative="1" as="geometry">
            <mxPoint x="288" y="642.5" as="sourcePoint" />
            <mxPoint x="588" y="1347.5" as="targetPoint" />
            <Array as="points">
              <mxPoint x="540" y="403" />
              <mxPoint x="540" y="1107" />
            </Array>
          </mxGeometry>
        </mxCell>
        <mxCell id="Xz8H3Bzz6eP4JOFIejTX-95" value="Company_Peoples" style="shape=table;startSize=30;container=1;collapsible=1;childLayout=tableLayout;fixedRows=1;rowLines=0;fontStyle=1;align=center;resizeLast=1;html=1;spacing=1;verticalAlign=middle;" vertex="1" parent="1">
          <mxGeometry x="634" y="1040" width="186.00000000000023" height="80" as="geometry" />
        </mxCell>
        <mxCell id="Xz8H3Bzz6eP4JOFIejTX-96" value="" style="shape=tableRow;horizontal=0;startSize=0;swimlaneHead=0;swimlaneBody=0;fillColor=none;collapsible=0;dropTarget=0;points=[[0,0.5],[1,0.5]];portConstraint=eastwest;top=0;left=0;right=0;bottom=0;" vertex="1" parent="Xz8H3Bzz6eP4JOFIejTX-95">
          <mxGeometry y="30" width="186.00000000000023" height="25" as="geometry" />
        </mxCell>
        <mxCell id="Xz8H3Bzz6eP4JOFIejTX-97" value="&lt;span style=&quot;font-weight: 700;&quot;&gt;PK FK&lt;/span&gt;" style="shape=partialRectangle;connectable=0;fillColor=none;top=0;left=0;bottom=0;right=0;editable=1;overflow=hidden;whiteSpace=wrap;html=1;" vertex="1" parent="Xz8H3Bzz6eP4JOFIejTX-96">
          <mxGeometry width="47" height="25" as="geometry">
            <mxRectangle width="47" height="25" as="alternateBounds" />
          </mxGeometry>
        </mxCell>
        <mxCell id="Xz8H3Bzz6eP4JOFIejTX-98" value="companyId" style="shape=partialRectangle;connectable=0;fillColor=none;top=0;left=0;bottom=0;right=0;align=left;spacingLeft=6;overflow=hidden;whiteSpace=wrap;html=1;" vertex="1" parent="Xz8H3Bzz6eP4JOFIejTX-96">
          <mxGeometry x="47" width="139.00000000000023" height="25" as="geometry">
            <mxRectangle width="139.00000000000023" height="25" as="alternateBounds" />
          </mxGeometry>
        </mxCell>
        <mxCell id="Xz8H3Bzz6eP4JOFIejTX-99" value="" style="shape=tableRow;horizontal=0;startSize=0;swimlaneHead=0;swimlaneBody=0;fillColor=none;collapsible=0;dropTarget=0;points=[[0,0.5],[1,0.5]];portConstraint=eastwest;top=0;left=0;right=0;bottom=0;" vertex="1" parent="Xz8H3Bzz6eP4JOFIejTX-95">
          <mxGeometry y="55" width="186.00000000000023" height="25" as="geometry" />
        </mxCell>
        <mxCell id="Xz8H3Bzz6eP4JOFIejTX-100" value="&lt;span style=&quot;font-weight: 700;&quot;&gt;PK FK&lt;/span&gt;" style="shape=partialRectangle;connectable=0;fillColor=none;top=0;left=0;bottom=0;right=0;editable=1;overflow=hidden;whiteSpace=wrap;html=1;" vertex="1" parent="Xz8H3Bzz6eP4JOFIejTX-99">
          <mxGeometry width="47" height="25" as="geometry">
            <mxRectangle width="47" height="25" as="alternateBounds" />
          </mxGeometry>
        </mxCell>
        <mxCell id="Xz8H3Bzz6eP4JOFIejTX-101" value="userId" style="shape=partialRectangle;connectable=0;fillColor=none;top=0;left=0;bottom=0;right=0;align=left;spacingLeft=6;overflow=hidden;whiteSpace=wrap;html=1;" vertex="1" parent="Xz8H3Bzz6eP4JOFIejTX-99">
          <mxGeometry x="47" width="139.00000000000023" height="25" as="geometry">
            <mxRectangle width="139.00000000000023" height="25" as="alternateBounds" />
          </mxGeometry>
        </mxCell>
        <mxCell id="Xz8H3Bzz6eP4JOFIejTX-158" style="edgeStyle=orthogonalEdgeStyle;rounded=0;orthogonalLoop=1;jettySize=auto;html=1;entryX=0;entryY=0.5;entryDx=0;entryDy=0;endArrow=none;endFill=0;startArrow=none;startFill=0;strokeWidth=2;exitX=0.5;exitY=0;exitDx=0;exitDy=0;" edge="1" parent="1" source="Xz8H3Bzz6eP4JOFIejTX-160" target="yLUDJvTatkyBeT4OISrp-2">
          <mxGeometry relative="1" as="geometry">
            <mxPoint x="310" y="830" as="sourcePoint" />
            <mxPoint x="310" y="440" as="targetPoint" />
            <Array as="points">
              <mxPoint x="310" y="403" />
            </Array>
          </mxGeometry>
        </mxCell>
        <mxCell id="Xz8H3Bzz6eP4JOFIejTX-160" value="&lt;font style=&quot;font-size: 24px;&quot;&gt;D&lt;/font&gt;" style="ellipse;whiteSpace=wrap;html=1;aspect=fixed;" vertex="1" parent="1">
          <mxGeometry x="289" y="783" width="45" height="45" as="geometry" />
        </mxCell>
        <mxCell id="Xz8H3Bzz6eP4JOFIejTX-166" value="" style="shape=partialRectangle;whiteSpace=wrap;html=1;left=0;right=0;fillColor=none;" vertex="1" parent="1">
          <mxGeometry x="277" y="828" width="70" height="19.42" as="geometry" />
        </mxCell>
        <mxCell id="Xz8H3Bzz6eP4JOFIejTX-169" value="" style="shape=partialRectangle;whiteSpace=wrap;html=1;bottom=1;right=1;left=1;top=0;fillColor=none;routingCenterX=-0.5;rotation=-180;" vertex="1" parent="1">
          <mxGeometry x="154" y="887.5" width="293" height="55.5" as="geometry" />
        </mxCell>
        <mxCell id="Xz8H3Bzz6eP4JOFIejTX-172" style="rounded=0;orthogonalLoop=1;jettySize=auto;html=1;endArrow=none;endFill=0;startArrow=none;startFill=0;strokeWidth=2;" edge="1" parent="1">
          <mxGeometry relative="1" as="geometry">
            <mxPoint x="312" y="890" as="sourcePoint" />
            <mxPoint x="312" y="847" as="targetPoint" />
          </mxGeometry>
        </mxCell>
        <mxCell id="Xz8H3Bzz6eP4JOFIejTX-173" value="Manager" style="shape=table;startSize=30;container=1;collapsible=1;childLayout=tableLayout;fixedRows=1;rowLines=0;fontStyle=1;align=center;resizeLast=1;html=1;spacing=1;verticalAlign=middle;" vertex="1" parent="1">
          <mxGeometry x="70" y="945.5" width="180" height="55" as="geometry" />
        </mxCell>
        <mxCell id="Xz8H3Bzz6eP4JOFIejTX-174" value="" style="shape=tableRow;horizontal=0;startSize=0;swimlaneHead=0;swimlaneBody=0;fillColor=none;collapsible=0;dropTarget=0;points=[[0,0.5],[1,0.5]];portConstraint=eastwest;top=0;left=0;right=0;bottom=1;" vertex="1" parent="Xz8H3Bzz6eP4JOFIejTX-173">
          <mxGeometry y="30" width="180" height="25" as="geometry" />
        </mxCell>
        <mxCell id="Xz8H3Bzz6eP4JOFIejTX-175" value="PK FK" style="shape=partialRectangle;connectable=0;fillColor=none;top=0;left=0;bottom=0;right=0;fontStyle=1;overflow=hidden;whiteSpace=wrap;html=1;" vertex="1" parent="Xz8H3Bzz6eP4JOFIejTX-174">
          <mxGeometry width="40" height="25" as="geometry">
            <mxRectangle width="40" height="25" as="alternateBounds" />
          </mxGeometry>
        </mxCell>
        <mxCell id="Xz8H3Bzz6eP4JOFIejTX-176" value="&lt;span style=&quot;font-weight: 400;&quot;&gt;userId&lt;/span&gt;" style="shape=partialRectangle;connectable=0;fillColor=none;top=0;left=0;bottom=0;right=0;align=left;spacingLeft=6;fontStyle=5;overflow=hidden;whiteSpace=wrap;html=1;" vertex="1" parent="Xz8H3Bzz6eP4JOFIejTX-174">
          <mxGeometry x="40" width="140" height="25" as="geometry">
            <mxRectangle width="140" height="25" as="alternateBounds" />
          </mxGeometry>
        </mxCell>
        <mxCell id="Xz8H3Bzz6eP4JOFIejTX-180" value="Normal" style="shape=table;startSize=30;container=1;collapsible=1;childLayout=tableLayout;fixedRows=1;rowLines=0;fontStyle=1;align=center;resizeLast=1;html=1;spacing=1;verticalAlign=middle;" vertex="1" parent="1">
          <mxGeometry x="350" y="945.5" width="170" height="55" as="geometry" />
        </mxCell>
        <mxCell id="Xz8H3Bzz6eP4JOFIejTX-181" value="" style="shape=tableRow;horizontal=0;startSize=0;swimlaneHead=0;swimlaneBody=0;fillColor=none;collapsible=0;dropTarget=0;points=[[0,0.5],[1,0.5]];portConstraint=eastwest;top=0;left=0;right=0;bottom=1;" vertex="1" parent="Xz8H3Bzz6eP4JOFIejTX-180">
          <mxGeometry y="30" width="170" height="25" as="geometry" />
        </mxCell>
        <mxCell id="Xz8H3Bzz6eP4JOFIejTX-182" value="PK FK" style="shape=partialRectangle;connectable=0;fillColor=none;top=0;left=0;bottom=0;right=0;fontStyle=1;overflow=hidden;whiteSpace=wrap;html=1;" vertex="1" parent="Xz8H3Bzz6eP4JOFIejTX-181">
          <mxGeometry width="42" height="25" as="geometry">
            <mxRectangle width="42" height="25" as="alternateBounds" />
          </mxGeometry>
        </mxCell>
        <mxCell id="Xz8H3Bzz6eP4JOFIejTX-183" value="&lt;span style=&quot;font-weight: 400;&quot;&gt;userId&lt;/span&gt;" style="shape=partialRectangle;connectable=0;fillColor=none;top=0;left=0;bottom=0;right=0;align=left;spacingLeft=6;fontStyle=5;overflow=hidden;whiteSpace=wrap;html=1;" vertex="1" parent="Xz8H3Bzz6eP4JOFIejTX-181">
          <mxGeometry x="42" width="128" height="25" as="geometry">
            <mxRectangle width="128" height="25" as="alternateBounds" />
          </mxGeometry>
        </mxCell>
        <mxCell id="Xz8H3Bzz6eP4JOFIejTX-197" value="User_Roles" style="shape=table;startSize=30;container=1;collapsible=1;childLayout=tableLayout;fixedRows=1;rowLines=0;fontStyle=1;align=center;resizeLast=1;html=1;spacing=1;verticalAlign=middle;" vertex="1" parent="1">
          <mxGeometry x="71" y="1050" width="180" height="80" as="geometry" />
        </mxCell>
        <mxCell id="Xz8H3Bzz6eP4JOFIejTX-198" value="" style="shape=tableRow;horizontal=0;startSize=0;swimlaneHead=0;swimlaneBody=0;fillColor=none;collapsible=0;dropTarget=0;points=[[0,0.5],[1,0.5]];portConstraint=eastwest;top=0;left=0;right=0;bottom=1;" vertex="1" parent="Xz8H3Bzz6eP4JOFIejTX-197">
          <mxGeometry y="30" width="180" height="25" as="geometry" />
        </mxCell>
        <mxCell id="Xz8H3Bzz6eP4JOFIejTX-199" value="PK FK" style="shape=partialRectangle;connectable=0;fillColor=none;top=0;left=0;bottom=0;right=0;fontStyle=1;overflow=hidden;whiteSpace=wrap;html=1;" vertex="1" parent="Xz8H3Bzz6eP4JOFIejTX-198">
          <mxGeometry width="40" height="25" as="geometry">
            <mxRectangle width="40" height="25" as="alternateBounds" />
          </mxGeometry>
        </mxCell>
        <mxCell id="Xz8H3Bzz6eP4JOFIejTX-200" value="&lt;span style=&quot;font-weight: 400;&quot;&gt;userId&lt;/span&gt;" style="shape=partialRectangle;connectable=0;fillColor=none;top=0;left=0;bottom=0;right=0;align=left;spacingLeft=6;fontStyle=5;overflow=hidden;whiteSpace=wrap;html=1;" vertex="1" parent="Xz8H3Bzz6eP4JOFIejTX-198">
          <mxGeometry x="40" width="140" height="25" as="geometry">
            <mxRectangle width="140" height="25" as="alternateBounds" />
          </mxGeometry>
        </mxCell>
        <mxCell id="Xz8H3Bzz6eP4JOFIejTX-201" value="" style="shape=tableRow;horizontal=0;startSize=0;swimlaneHead=0;swimlaneBody=0;fillColor=none;collapsible=0;dropTarget=0;points=[[0,0.5],[1,0.5]];portConstraint=eastwest;top=0;left=0;right=0;bottom=1;" vertex="1" parent="Xz8H3Bzz6eP4JOFIejTX-197">
          <mxGeometry y="55" width="180" height="25" as="geometry" />
        </mxCell>
        <mxCell id="Xz8H3Bzz6eP4JOFIejTX-202" value="PK FK" style="shape=partialRectangle;connectable=0;fillColor=none;top=0;left=0;bottom=0;right=0;fontStyle=1;overflow=hidden;whiteSpace=wrap;html=1;" vertex="1" parent="Xz8H3Bzz6eP4JOFIejTX-201">
          <mxGeometry width="40" height="25" as="geometry">
            <mxRectangle width="40" height="25" as="alternateBounds" />
          </mxGeometry>
        </mxCell>
        <mxCell id="Xz8H3Bzz6eP4JOFIejTX-203" value="&lt;span style=&quot;font-weight: 400;&quot;&gt;roleId&lt;/span&gt;" style="shape=partialRectangle;connectable=0;fillColor=none;top=0;left=0;bottom=0;right=0;align=left;spacingLeft=6;fontStyle=5;overflow=hidden;whiteSpace=wrap;html=1;" vertex="1" parent="Xz8H3Bzz6eP4JOFIejTX-201">
          <mxGeometry x="40" width="140" height="25" as="geometry">
            <mxRectangle width="140" height="25" as="alternateBounds" />
          </mxGeometry>
        </mxCell>
        <mxCell id="Xz8H3Bzz6eP4JOFIejTX-204" value="Roles" style="shape=table;startSize=30;container=1;collapsible=1;childLayout=tableLayout;fixedRows=1;rowLines=0;fontStyle=1;align=center;resizeLast=1;html=1;spacing=1;verticalAlign=middle;" vertex="1" parent="1">
          <mxGeometry x="352" y="1074" width="170" height="80" as="geometry" />
        </mxCell>
        <mxCell id="Xz8H3Bzz6eP4JOFIejTX-205" value="" style="shape=tableRow;horizontal=0;startSize=0;swimlaneHead=0;swimlaneBody=0;fillColor=none;collapsible=0;dropTarget=0;points=[[0,0.5],[1,0.5]];portConstraint=eastwest;top=0;left=0;right=0;bottom=1;" vertex="1" parent="Xz8H3Bzz6eP4JOFIejTX-204">
          <mxGeometry y="30" width="170" height="25" as="geometry" />
        </mxCell>
        <mxCell id="Xz8H3Bzz6eP4JOFIejTX-206" value="PK" style="shape=partialRectangle;connectable=0;fillColor=none;top=0;left=0;bottom=0;right=0;fontStyle=1;overflow=hidden;whiteSpace=wrap;html=1;" vertex="1" parent="Xz8H3Bzz6eP4JOFIejTX-205">
          <mxGeometry width="25.999999999999773" height="25" as="geometry">
            <mxRectangle width="25.999999999999773" height="25" as="alternateBounds" />
          </mxGeometry>
        </mxCell>
        <mxCell id="Xz8H3Bzz6eP4JOFIejTX-207" value="&lt;span style=&quot;font-weight: 400;&quot;&gt;roleId&lt;/span&gt;" style="shape=partialRectangle;connectable=0;fillColor=none;top=0;left=0;bottom=0;right=0;align=left;spacingLeft=6;fontStyle=5;overflow=hidden;whiteSpace=wrap;html=1;" vertex="1" parent="Xz8H3Bzz6eP4JOFIejTX-205">
          <mxGeometry x="25.999999999999773" width="144.00000000000023" height="25" as="geometry">
            <mxRectangle width="144.00000000000023" height="25" as="alternateBounds" />
          </mxGeometry>
        </mxCell>
        <mxCell id="Xz8H3Bzz6eP4JOFIejTX-212" value="" style="shape=tableRow;horizontal=0;startSize=0;swimlaneHead=0;swimlaneBody=0;fillColor=none;collapsible=0;dropTarget=0;points=[[0,0.5],[1,0.5]];portConstraint=eastwest;top=0;left=0;right=0;bottom=1;" vertex="1" parent="Xz8H3Bzz6eP4JOFIejTX-204">
          <mxGeometry y="55" width="170" height="25" as="geometry" />
        </mxCell>
        <mxCell id="Xz8H3Bzz6eP4JOFIejTX-213" value="" style="shape=partialRectangle;connectable=0;fillColor=none;top=0;left=0;bottom=0;right=0;fontStyle=1;overflow=hidden;whiteSpace=wrap;html=1;" vertex="1" parent="Xz8H3Bzz6eP4JOFIejTX-212">
          <mxGeometry width="25.999999999999773" height="25" as="geometry">
            <mxRectangle width="25.999999999999773" height="25" as="alternateBounds" />
          </mxGeometry>
        </mxCell>
        <mxCell id="Xz8H3Bzz6eP4JOFIejTX-214" value="&lt;span style=&quot;font-weight: 400;&quot;&gt;roleName&lt;/span&gt;" style="shape=partialRectangle;connectable=0;fillColor=none;top=0;left=0;bottom=0;right=0;align=left;spacingLeft=6;fontStyle=5;overflow=hidden;whiteSpace=wrap;html=1;" vertex="1" parent="Xz8H3Bzz6eP4JOFIejTX-212">
          <mxGeometry x="25.999999999999773" width="144.00000000000023" height="25" as="geometry">
            <mxRectangle width="144.00000000000023" height="25" as="alternateBounds" />
          </mxGeometry>
        </mxCell>
        <mxCell id="Xz8H3Bzz6eP4JOFIejTX-216" style="rounded=0;orthogonalLoop=1;jettySize=auto;html=1;endArrow=ERoneToMany;endFill=0;startArrow=ERmandOne;startFill=0;strokeWidth=2;edgeStyle=orthogonalEdgeStyle;exitX=0;exitY=0.5;exitDx=0;exitDy=0;" edge="1" parent="1" source="Xz8H3Bzz6eP4JOFIejTX-174" target="Xz8H3Bzz6eP4JOFIejTX-198">
          <mxGeometry relative="1" as="geometry">
            <mxPoint x="1030" y="1110" as="sourcePoint" />
            <mxPoint x="950" y="970.5" as="targetPoint" />
          </mxGeometry>
        </mxCell>
        <mxCell id="Xz8H3Bzz6eP4JOFIejTX-218" value="" style="edgeStyle=orthogonalEdgeStyle;fontSize=12;html=1;endArrow=ERzeroToMany;startArrow=ERmandOne;rounded=0;strokeWidth=2;endFill=0;exitX=0;exitY=0.5;exitDx=0;exitDy=0;" edge="1" parent="1" source="Xz8H3Bzz6eP4JOFIejTX-205" target="Xz8H3Bzz6eP4JOFIejTX-201">
          <mxGeometry width="100" height="100" relative="1" as="geometry">
            <mxPoint x="319.91999999999996" y="1057" as="sourcePoint" />
            <mxPoint x="321.91999999999996" y="631" as="targetPoint" />
          </mxGeometry>
        </mxCell>
      </root>
    </mxGraphModel>
  </diagram>
</mxfile>
